<svg xmlns="http://www.w3.org/2000/svg" xmlns:xlink="http://www.w3.org/1999/xlink" version="1.1">

    <symbol id="main-logo-icon" viewBox="0 0 187 36">
        <path fill-rule="evenodd" clip-rule="evenodd" d="M6.86127 0L5.14489 4.70912H28.9302L30.6466 0H6.86127ZM4.28615 7.06258L2.56976 11.7706H26.3551L28.0714 7.06258H4.28615ZM1.71639 14.1252L0 18.8332H23.7853L25.5006 14.1252H1.71639Z" fill="#00AAFF"/>
        <path fill-rule="evenodd" clip-rule="evenodd" d="M50.5661 20.6279V20.7273C51.6529 21.1269 52.6913 21.8257 53.2354 22.2744C54.9161 23.672 55.6582 25.5184 55.6582 27.9139C55.6582 31.8577 53.5815 34.702 50.1701 35.6006C49.1318 35.8997 48.045 36.0002 46.0169 36.0002H35.6855V7.15332H44.8315C46.7103 7.15332 47.9951 7.25268 49.1318 7.55182C52.4448 8.45043 54.6198 10.7466 54.6198 14.389C54.6198 16.3358 53.9276 17.9835 52.7909 19.0808C52.2967 19.5798 51.6045 20.1792 50.5661 20.6279ZM41.4201 23.672V31.2582H45.3755C46.5608 31.2582 47.649 31.1589 48.4409 30.4099C49.2315 29.6609 49.5776 28.7131 49.5776 27.4652C49.5776 26.5174 49.3298 25.6188 48.8355 24.9702C47.9951 23.9221 46.9568 23.672 45.1776 23.672H41.4201ZM41.3704 18.6811H44.5838C45.5723 18.6811 46.0667 18.6811 46.5608 18.5316C47.8968 18.132 48.7372 16.9353 48.7372 15.2877C48.7372 13.342 47.847 12.4925 46.5608 12.094C46.0169 11.9444 45.474 11.8942 44.3859 11.8942H41.3704V18.6811ZM64.2599 36.0002V11.9935H56.0043V7.15332H78.9436L77.3127 11.9935H69.9949V36.0002H64.2599ZM80.7227 36.0002V7.15332H99.312L97.6811 11.9935H86.4087V18.382H91.0066C94.7142 18.382 96.6428 19.2806 97.9774 20.4281C99.0157 21.3267 100.795 23.3226 100.795 27.2664C100.795 31.1589 98.9659 33.3044 97.4333 34.4028C95.6543 35.6497 93.7755 36.0002 89.9682 36.0002H80.7227ZM86.4087 31.1589H90.7103C92.3412 31.1589 93.3297 30.7593 94.022 29.8607C94.3681 29.4119 94.8623 28.6127 94.8623 27.1158C94.8623 25.6188 94.3681 24.5706 93.3796 23.8216C92.787 23.3728 91.9951 23.1239 90.6605 23.1239H86.4087V31.1589Z" fill="#002882"/>
        <path fill-rule="evenodd" clip-rule="evenodd" d="M124.822 11.2261V11.6304C124.822 12.2788 124.735 12.8607 124.559 13.3763C124.383 13.8919 124.135 14.3313 123.815 14.6945C123.494 15.0539 123.112 15.3292 122.666 15.5206C122.225 15.712 121.735 15.8077 121.196 15.8077C120.661 15.8077 120.171 15.712 119.725 15.5206C119.284 15.3292 118.901 15.0539 118.577 14.6945C118.253 14.3313 118.001 13.8919 117.821 13.3763C117.645 12.8607 117.558 12.2788 117.558 11.6304V11.2261C117.558 10.5739 117.645 9.99189 117.821 9.48022C117.997 8.96465 118.245 8.52524 118.565 8.16199C118.889 7.79875 119.272 7.52144 119.714 7.33005C120.159 7.13866 120.649 7.04297 121.184 7.04297C121.723 7.04297 122.213 7.13866 122.655 7.33005C123.1 7.52144 123.483 7.79875 123.803 8.16199C124.127 8.52524 124.377 8.96465 124.553 9.48022C124.733 9.99189 124.822 10.5739 124.822 11.2261ZM123.047 11.6304V11.2144C123.047 10.7613 123.006 10.3629 122.924 10.0192C122.842 9.67551 122.721 9.38648 122.561 9.15213C122.401 8.91778 122.206 8.74201 121.975 8.62484C121.745 8.50376 121.481 8.44322 121.184 8.44322C120.887 8.44322 120.624 8.50376 120.393 8.62484C120.167 8.74201 119.973 8.91778 119.813 9.15213C119.657 9.38648 119.538 9.67551 119.456 10.0192C119.374 10.3629 119.333 10.7613 119.333 11.2144V11.6304C119.333 12.0796 119.374 12.478 119.456 12.8256C119.538 13.1693 119.659 13.4603 119.819 13.6985C119.979 13.9329 120.175 14.1106 120.405 14.2317C120.635 14.3528 120.899 14.4133 121.196 14.4133C121.493 14.4133 121.756 14.3528 121.987 14.2317C122.217 14.1106 122.411 13.9329 122.567 13.6985C122.723 13.4603 122.842 13.1693 122.924 12.8256C123.006 12.478 123.047 12.0796 123.047 11.6304Z" fill="#002882"/>
        <path d="M154.462 8.53696H152.183L152.036 11.4429C152.005 12.0835 151.944 12.6401 151.854 13.1127C151.768 13.5853 151.651 13.9876 151.503 14.3196C151.354 14.6477 151.171 14.9133 150.952 15.1164C150.737 15.3156 150.483 15.462 150.19 15.5558C149.898 15.6456 149.564 15.6905 149.189 15.6905H148.755V14.3196L148.978 14.302C149.169 14.2825 149.337 14.2317 149.482 14.1497C149.626 14.0676 149.749 13.9446 149.851 13.7806C149.956 13.6165 150.042 13.4076 150.108 13.1537C150.179 12.8959 150.233 12.5815 150.273 12.2104C150.315 11.8394 150.345 11.4058 150.36 10.9098L150.501 7.16014H156.219V15.6905H154.462V8.53696Z" fill="#002882"/>
        <path d="M169.694 26.7055H171.446C171.411 27.2796 171.253 27.7893 170.971 28.2346C170.694 28.6799 170.305 29.0275 169.805 29.2775C169.309 29.5274 168.712 29.6524 168.013 29.6524C167.466 29.6524 166.976 29.5587 166.542 29.3712C166.109 29.1798 165.737 28.9064 165.429 28.551C165.124 28.1955 164.892 27.7659 164.732 27.262C164.572 26.7582 164.492 26.1938 164.492 25.5689V24.9771C164.492 24.3522 164.574 23.7878 164.738 23.2839C164.906 22.7762 165.144 22.3446 165.452 21.9892C165.765 21.6337 166.138 21.3603 166.571 21.1689C167.005 20.9775 167.489 20.8818 168.024 20.8818C168.735 20.8818 169.335 21.0107 169.823 21.2685C170.315 21.5263 170.696 21.8817 170.965 22.3348C171.239 22.7879 171.403 23.3035 171.458 23.8815H169.7C169.68 23.5378 169.612 23.2468 169.495 23.0086C169.378 22.7664 169.2 22.5848 168.962 22.4637C168.727 22.3387 168.415 22.2762 168.024 22.2762C167.731 22.2762 167.476 22.3309 167.257 22.4403C167.038 22.5496 166.855 22.7156 166.706 22.9383C166.558 23.1609 166.446 23.4421 166.372 23.7819C166.302 24.1178 166.267 24.5123 166.267 24.9654V25.5689C166.267 26.0102 166.3 26.3989 166.366 26.7348C166.433 27.0668 166.534 27.348 166.671 27.5784C166.812 27.805 166.991 27.9768 167.21 28.094C167.433 28.2073 167.7 28.2639 168.013 28.2639C168.38 28.2639 168.683 28.2053 168.921 28.0881C169.159 27.971 169.341 27.7971 169.466 27.5667C169.595 27.3363 169.671 27.0492 169.694 26.7055Z" fill="#002882"/>
        <path d="M176.358 29.5353V22.3817H178.983V21.0049H172.023V22.3817H174.607V29.5353H176.358Z" fill="#002882"/>
        <path d="M185.225 21.0049L181.798 26.7699V21.0049H180.04V29.5353H181.798L185.225 23.7702V29.5353H186.983V21.0049H185.225Z" fill="#002882"/>
        <path fill-rule="evenodd" clip-rule="evenodd" d="M163.364 25.4751V25.0709C163.364 24.4186 163.274 23.8366 163.094 23.325C162.919 22.8094 162.669 22.37 162.344 22.0067C162.024 21.6435 161.641 21.3662 161.196 21.1748C160.755 20.9834 160.265 20.8877 159.726 20.8877C159.19 20.8877 158.7 20.9834 158.255 21.1748C157.814 21.3662 157.431 21.6435 157.107 22.0067C156.786 22.37 156.538 22.8094 156.363 23.325C156.187 23.8366 156.099 24.4186 156.099 25.0709V25.4751C156.099 26.1235 156.187 26.7055 156.363 27.221C156.542 27.7366 156.794 28.176 157.118 28.5393C157.443 28.8986 157.825 29.174 158.267 29.3653C158.712 29.5567 159.202 29.6524 159.737 29.6524C160.276 29.6524 160.766 29.5567 161.208 29.3653C161.653 29.174 162.036 28.8986 162.356 28.5393C162.676 28.176 162.924 27.7366 163.1 27.221C163.276 26.7055 163.364 26.1235 163.364 25.4751ZM161.589 25.0592V25.4751C161.589 25.9243 161.548 26.3227 161.466 26.6703C161.384 27.014 161.264 27.305 161.108 27.5433C160.952 27.7776 160.759 27.9553 160.528 28.0764C160.298 28.1975 160.034 28.258 159.737 28.258C159.44 28.258 159.177 28.1975 158.946 28.0764C158.716 27.9553 158.521 27.7776 158.36 27.5433C158.2 27.305 158.079 27.014 157.997 26.6703C157.915 26.3227 157.874 25.9243 157.874 25.4751V25.0592C157.874 24.6061 157.915 24.2077 157.997 23.864C158.079 23.5202 158.198 23.2312 158.355 22.9969C158.515 22.7625 158.708 22.5867 158.935 22.4696C159.165 22.3485 159.429 22.2879 159.726 22.2879C160.022 22.2879 160.286 22.3485 160.516 22.4696C160.747 22.5867 160.942 22.7625 161.102 22.9969C161.262 23.2312 161.384 23.5202 161.466 23.864C161.548 24.2077 161.589 24.6061 161.589 25.0592Z" fill="#002882"/>
        <path d="M152.956 21.0049V24.4791H149.523V21.0049H147.765V29.5353H149.523V25.8501H152.956V29.5353H154.708V21.0049H152.956Z" fill="#002882"/>
        <path d="M144.018 29.5353V22.3817H146.643V21.0049H139.683V22.3817H142.267V29.5353H144.018Z" fill="#002882"/>
        <path d="M138.942 28.1643V29.5353H133.218V21.0049H138.936V22.3817H134.976V24.4791H138.35V25.8149H134.976V28.1643H138.942Z" fill="#002882"/>
        <path d="M126.583 21.0049H124.819V23.6238C124.819 24.2799 124.956 24.817 125.23 25.2349C125.507 25.6489 125.895 25.9536 126.395 26.1489C126.895 26.3442 127.485 26.4418 128.165 26.4418C128.298 26.4418 128.454 26.436 128.633 26.4242C128.817 26.4125 129.005 26.395 129.196 26.3715C129.387 26.3442 129.571 26.3129 129.747 26.2778C129.771 26.273 129.794 26.2681 129.817 26.2633V29.5353H131.575V21.0049H129.817V24.8981C129.794 24.903 129.771 24.9079 129.747 24.9127C129.571 24.9439 129.387 24.9732 129.196 25.0006C129.005 25.024 128.817 25.0416 128.633 25.0533C128.454 25.065 128.298 25.0709 128.165 25.0709C127.813 25.0709 127.518 25.0299 127.28 24.9478C127.046 24.8619 126.87 24.7135 126.753 24.5026C126.64 24.2917 126.583 23.9987 126.583 23.6238V21.0049Z" fill="#002882"/>
        <path d="M121.02 22.3817V29.5353H119.268V22.3817H116.685V21.0049H123.645V22.3817H121.02Z" fill="#002882"/>
        <path fill-rule="evenodd" clip-rule="evenodd" d="M116.219 25.4751V25.0709C116.219 24.4186 116.129 23.8366 115.949 23.325C115.774 22.8094 115.524 22.37 115.2 22.0067C114.879 21.6435 114.497 21.3662 114.051 21.1748C113.61 20.9834 113.12 20.8877 112.581 20.8877C112.046 20.8877 111.555 20.9834 111.11 21.1748C110.669 21.3662 110.286 21.6435 109.962 22.0067C109.642 22.37 109.394 22.8094 109.218 23.325C109.042 23.8366 108.954 24.4186 108.954 25.0709V25.4751C108.954 26.1235 109.042 26.7055 109.218 27.221C109.397 27.7366 109.649 28.176 109.974 28.5393C110.298 28.8986 110.68 29.174 111.122 29.3653C111.567 29.5567 112.057 29.6524 112.592 29.6524C113.131 29.6524 113.622 29.5567 114.063 29.3653C114.508 29.174 114.891 28.8986 115.211 28.5393C115.532 28.176 115.78 27.7366 115.955 27.221C116.131 26.7055 116.219 26.1235 116.219 25.4751ZM114.444 25.0592V25.4751C114.444 25.9243 114.403 26.3227 114.321 26.6703C114.239 27.014 114.12 27.305 113.963 27.5433C113.807 27.7776 113.614 27.9553 113.383 28.0764C113.153 28.1975 112.889 28.258 112.592 28.258C112.296 28.258 112.032 28.1975 111.801 28.0764C111.571 27.9553 111.376 27.7776 111.216 27.5433C111.055 27.305 110.934 27.014 110.852 26.6703C110.77 26.3227 110.729 25.9243 110.729 25.4751V25.0592C110.729 24.6061 110.77 24.2077 110.852 23.864C110.934 23.5202 111.053 23.2312 111.21 22.9969C111.37 22.7625 111.563 22.5867 111.79 22.4696C112.02 22.3485 112.284 22.2879 112.581 22.2879C112.878 22.2879 113.141 22.3485 113.372 22.4696C113.602 22.5867 113.797 22.7625 113.957 22.9969C114.118 23.2312 114.239 23.5202 114.321 23.864C114.403 24.2077 114.444 24.6061 114.444 25.0592Z" fill="#002882"/>
        <path fill-rule="evenodd" clip-rule="evenodd" d="M145.073 7.16014L148.26 15.6905H146.385L145.794 13.8919H142.728L142.138 15.6905H140.269L143.438 7.16014H145.073ZM143.18 12.5151H145.341L144.259 9.22537L143.18 12.5151Z" fill="#002882"/>
        <path d="M137.876 8.53696V15.6905H136.124V8.53696H133.54V7.16014H140.5V8.53696H137.876Z" fill="#002882"/>
        <path fill-rule="evenodd" clip-rule="evenodd" d="M127.966 12.6498H129.53C130.198 12.6498 130.77 12.5405 131.247 12.3217C131.727 12.103 132.094 11.7925 132.348 11.3902C132.602 10.9879 132.729 10.5114 132.729 9.96064C132.729 9.41773 132.602 8.93535 132.348 8.51352C132.094 8.09169 131.727 7.76165 131.247 7.52339C130.77 7.28123 130.198 7.16014 129.53 7.16014H126.208V15.6905H127.966V12.6498ZM129.53 11.2789H127.966V8.53696H129.53C129.866 8.53696 130.139 8.60336 130.35 8.73615C130.561 8.86895 130.715 9.04472 130.813 9.26344C130.911 9.48217 130.959 9.71848 130.959 9.97236C130.959 10.2223 130.911 10.4469 130.813 10.6461C130.715 10.8453 130.561 11.0015 130.35 11.1148C130.139 11.2242 129.866 11.2789 129.53 11.2789Z" fill="#002882"/>
        <path d="M116.16 15.6905V7.16014H109.218V15.6905H110.975V8.53696H114.403V15.6905H116.16Z" fill="#002882"/>
    </symbol>

    <symbol id="personal-icon" viewBox="0 0 24 24">
        <path d="M12 0C5.38327 0 0 5.38327 0 12C0 18.6167 5.38327 24 12 24C18.6167 24 24 18.6167 24 12C24 5.38327 18.6167 0 12 0ZM9.10269 6.73962C9.83365 5.96481 10.8623 5.53846 12 5.53846C13.1377 5.53846 14.1571 5.96769 14.891 6.74654C15.6346 7.53577 15.9963 8.59615 15.911 9.73615C15.7402 12 13.9863 13.8462 12 13.8462C10.0137 13.8462 8.25635 12 8.08904 9.73558C8.00423 8.58635 8.36539 7.5225 9.10269 6.73962ZM12 22.1538C10.6445 22.1547 9.30262 21.8834 8.05394 21.356C6.80525 20.8286 5.67519 20.0558 4.73077 19.0835C5.27167 18.3121 5.96086 17.6562 6.75808 17.1542C8.22865 16.2115 10.0898 15.6923 12 15.6923C13.9102 15.6923 15.7713 16.2115 17.2402 17.1542C18.0381 17.656 18.7279 18.3119 19.2692 19.0835C18.3249 20.0559 17.1948 20.8288 15.9461 21.3562C14.6974 21.8836 13.3555 22.1549 12 22.1538Z" />
    </symbol>

    <symbol id="report-icon" viewBox="0 0 19 24" >
        <path d="M15.4286 0H3.42857C2.51956 0.000992601 1.64807 0.362535 1.0053 1.0053C0.362535 1.64807 0.000992601 2.51956 0 3.42857V20.5714C0.000992601 21.4804 0.362535 22.3519 1.0053 22.9947C1.64807 23.6375 2.51956 23.999 3.42857 24H15.4286C16.3376 23.999 17.2091 23.6375 17.8518 22.9947C18.4946 22.3519 18.8561 21.4804 18.8571 20.5714V3.42857C18.8561 2.51956 18.4946 1.64807 17.8518 1.0053C17.2091 0.362535 16.3376 0.000992601 15.4286 0ZM9.42857 14.5714H5.14286C4.91553 14.5714 4.69751 14.4811 4.53677 14.3204C4.37602 14.1596 4.28571 13.9416 4.28571 13.7143C4.28571 13.487 4.37602 13.2689 4.53677 13.1082C4.69751 12.9474 4.91553 12.8571 5.14286 12.8571H9.42857C9.6559 12.8571 9.87392 12.9474 10.0347 13.1082C10.1954 13.2689 10.2857 13.487 10.2857 13.7143C10.2857 13.9416 10.1954 14.1596 10.0347 14.3204C9.87392 14.4811 9.6559 14.5714 9.42857 14.5714ZM13.7143 10.2857H5.14286C4.91553 10.2857 4.69751 10.1954 4.53677 10.0347C4.37602 9.87392 4.28571 9.6559 4.28571 9.42857C4.28571 9.20124 4.37602 8.98323 4.53677 8.82248C4.69751 8.66173 4.91553 8.57143 5.14286 8.57143H13.7143C13.9416 8.57143 14.1596 8.66173 14.3204 8.82248C14.4811 8.98323 14.5714 9.20124 14.5714 9.42857C14.5714 9.6559 14.4811 9.87392 14.3204 10.0347C14.1596 10.1954 13.9416 10.2857 13.7143 10.2857ZM13.7143 6H5.14286C4.91553 6 4.69751 5.90969 4.53677 5.74895C4.37602 5.5882 4.28571 5.37019 4.28571 5.14286C4.28571 4.91553 4.37602 4.69751 4.53677 4.53677C4.69751 4.37602 4.91553 4.28571 5.14286 4.28571H13.7143C13.9416 4.28571 14.1596 4.37602 14.3204 4.53677C14.4811 4.69751 14.5714 4.91553 14.5714 5.14286C14.5714 5.37019 14.4811 5.5882 14.3204 5.74895C14.1596 5.90969 13.9416 6 13.7143 6Z" />
    </symbol>

    <symbol id="help-icon" viewBox="0 0 24 24">
        <path d="M12 0C5.375 0 0 5.375 0 12C0 18.625 5.375 24 12 24C18.625 24 24 18.625 24 12C24 5.375 18.625 0 12 0ZM11.625 19C11.3778 19 11.1361 18.9267 10.9305 18.7893C10.725 18.652 10.5648 18.4568 10.4702 18.2284C10.3755 17.9999 10.3508 17.7486 10.399 17.5061C10.4472 17.2637 10.5663 17.0409 10.7411 16.8661C10.9159 16.6913 11.1387 16.5723 11.3811 16.524C11.6236 16.4758 11.8749 16.5005 12.1034 16.5951C12.3318 16.6898 12.527 16.85 12.6643 17.0555C12.8017 17.2611 12.875 17.5028 12.875 17.75C12.875 18.0815 12.7433 18.3995 12.5089 18.6339C12.2745 18.8683 11.9565 19 11.625 19ZM13.715 12.625C12.7019 13.305 12.5625 13.9281 12.5625 14.5C12.5625 14.7321 12.4703 14.9546 12.3062 15.1187C12.1421 15.2828 11.9196 15.375 11.6875 15.375C11.4554 15.375 11.2329 15.2828 11.0688 15.1187C10.9047 14.9546 10.8125 14.7321 10.8125 14.5C10.8125 13.1306 11.4425 12.0419 12.7388 11.1713C13.9438 10.3625 14.625 9.85 14.625 8.72313C14.625 7.95688 14.1875 7.375 13.2819 6.94438C13.0688 6.84312 12.5944 6.74438 12.0106 6.75125C11.2781 6.76063 10.7094 6.93563 10.2712 7.28813C9.445 7.95312 9.375 8.67688 9.375 8.6875C9.36946 8.80241 9.34134 8.9151 9.29225 9.01914C9.24316 9.12318 9.17406 9.21653 9.08889 9.29386C9.00372 9.3712 8.90415 9.431 8.79587 9.46985C8.68759 9.50871 8.57272 9.52585 8.45781 9.52031C8.34291 9.51477 8.23022 9.48665 8.12618 9.43756C8.02214 9.38847 7.92878 9.31937 7.85145 9.2342C7.77412 9.14903 7.71432 9.04946 7.67546 8.94118C7.63661 8.8329 7.61946 8.71803 7.625 8.60312C7.63188 8.45125 7.7375 7.08313 9.17313 5.92813C9.9175 5.32938 10.8644 5.01813 11.9856 5.00438C12.7794 4.995 13.525 5.12937 14.0306 5.36812C15.5437 6.08375 16.375 7.27688 16.375 8.72313C16.375 10.8375 14.9619 11.7869 13.715 12.625Z" />
    </symbol>

    <symbol id="info-icon" viewBox="0 0 24 24">
        <path d="M12 0C5.3832 0 0 5.3832 0 12C0 18.6168 5.3832 24 12 24C18.6168 24 24 18.6168 24 12C24 5.3832 18.6168 0 12 0ZM12 4.92C12.3085 4.92 12.6101 5.01149 12.8667 5.18291C13.1232 5.35432 13.3232 5.59796 13.4413 5.88301C13.5593 6.16807 13.5902 6.48173 13.53 6.78434C13.4698 7.08695 13.3213 7.36492 13.1031 7.58309C12.8849 7.80126 12.607 7.94983 12.3043 8.01002C12.0017 8.07022 11.6881 8.03932 11.403 7.92125C11.118 7.80318 10.8743 7.60323 10.7029 7.34669C10.5315 7.09015 10.44 6.78854 10.44 6.48C10.44 6.06626 10.6044 5.66947 10.8969 5.37691C11.1895 5.08436 11.5863 4.92 12 4.92ZM14.88 18.48H9.6C9.34539 18.48 9.10121 18.3789 8.92118 18.1988C8.74114 18.0188 8.64 17.7746 8.64 17.52C8.64 17.2654 8.74114 17.0212 8.92118 16.8412C9.10121 16.6611 9.34539 16.56 9.6 16.56H11.28V11.28H10.32C10.0654 11.28 9.82121 11.1789 9.64118 10.9988C9.46114 10.8188 9.36 10.5746 9.36 10.32C9.36 10.0654 9.46114 9.82121 9.64118 9.64118C9.82121 9.46114 10.0654 9.36 10.32 9.36H12.24C12.4946 9.36 12.7388 9.46114 12.9188 9.64118C13.0989 9.82121 13.2 10.0654 13.2 10.32V16.56H14.88C15.1346 16.56 15.3788 16.6611 15.5588 16.8412C15.7389 17.0212 15.84 17.2654 15.84 17.52C15.84 17.7746 15.7389 18.0188 15.5588 18.1988C15.3788 18.3789 15.1346 18.48 14.88 18.48Z" />
    </symbol>

    <symbol id="settings-icon" viewBox="0 0 24 21" >
        <path d="M0.923077 3.69152H14.0048C14.1958 4.23124 14.5494 4.69849 15.0169 5.02896C15.4844 5.35944 16.0429 5.53688 16.6154 5.53688C17.1879 5.53688 17.7464 5.35944 18.2139 5.02896C18.6814 4.69849 19.035 4.23124 19.226 3.69152H23.0769C23.3217 3.69152 23.5565 3.59427 23.7296 3.42116C23.9027 3.24805 24 3.01326 24 2.76844C24 2.52363 23.9027 2.28884 23.7296 2.11573C23.5565 1.94262 23.3217 1.84537 23.0769 1.84537H19.226C19.035 1.30565 18.6814 0.838395 18.2139 0.507922C17.7464 0.177448 17.1879 0 16.6154 0C16.0429 0 15.4844 0.177448 15.0169 0.507922C14.5494 0.838395 14.1958 1.30565 14.0048 1.84537H0.923077C0.678262 1.84537 0.443473 1.94262 0.270363 2.11573C0.0972524 2.28884 0 2.52363 0 2.76844C0 3.01326 0.0972524 3.24805 0.270363 3.42116C0.443473 3.59427 0.678262 3.69152 0.923077 3.69152ZM23.0769 16.6146H19.226C19.035 16.0749 18.6814 15.6076 18.2139 15.2772C17.7464 14.9467 17.1879 14.7692 16.6154 14.7692C16.0429 14.7692 15.4844 14.9467 15.0169 15.2772C14.5494 15.6076 14.1958 16.0749 14.0048 16.6146H0.923077C0.678262 16.6146 0.443473 16.7118 0.270363 16.885C0.0972524 17.0581 0 17.2929 0 17.5377C0 17.7825 0.0972524 18.0173 0.270363 18.1904C0.443473 18.3635 0.678262 18.4607 0.923077 18.4607H14.0048C14.1958 19.0005 14.5494 19.4677 15.0169 19.7982C15.4844 20.1287 16.0429 20.3061 16.6154 20.3061C17.1879 20.3061 17.7464 20.1287 18.2139 19.7982C18.6814 19.4677 19.035 19.0005 19.226 18.4607H23.0769C23.3217 18.4607 23.5565 18.3635 23.7296 18.1904C23.9027 18.0173 24 17.7825 24 17.5377C24 17.2929 23.9027 17.0581 23.7296 16.885C23.5565 16.7118 23.3217 16.6146 23.0769 16.6146ZM23.0769 9.22998H9.99519C9.80419 8.69026 9.4506 8.22301 8.98309 7.89254C8.51558 7.56206 7.95713 7.38461 7.38462 7.38461C6.8121 7.38461 6.25365 7.56206 5.78614 7.89254C5.31863 8.22301 4.96504 8.69026 4.77404 9.22998H0.923077C0.678262 9.22998 0.443473 9.32723 0.270363 9.50034C0.0972524 9.67345 0 9.90824 0 10.1531C0 10.3979 0.0972524 10.6327 0.270363 10.8058C0.443473 10.9789 0.678262 11.0761 0.923077 11.0761H4.77404C4.96504 11.6159 5.31863 12.0831 5.78614 12.4136C6.25365 12.7441 6.8121 12.9215 7.38462 12.9215C7.95713 12.9215 8.51558 12.7441 8.98309 12.4136C9.4506 12.0831 9.80419 11.6159 9.99519 11.0761H23.0769C23.3217 11.0761 23.5565 10.9789 23.7296 10.8058C23.9027 10.6327 24 10.3979 24 10.1531C24 9.90824 23.9027 9.67345 23.7296 9.50034C23.5565 9.32723 23.3217 9.22998 23.0769 9.22998Z" />
    </symbol>

    <symbol id="list-plus-icon" viewBox="0 0 16 16">
        <path fill-rule="evenodd" clip-rule="evenodd" d="M0 8C0 3.58885 3.58885 0 8 0C12.4112 0 16 3.58885 16 8C16 12.4112 12.4112 16 8 16C7.98277 16 7.96555 15.9999 7.94834 15.9998C3.56086 15.972 0 12.3939 0 8ZM8.61538 8.61539H11.0769C11.2401 8.61539 11.3967 8.55055 11.5121 8.43514C11.6275 8.31974 11.6923 8.16321 11.6923 8C11.6923 7.83679 11.6275 7.68026 11.5121 7.56486C11.3967 7.44945 11.2401 7.38462 11.0769 7.38462H8.61538V4.92308C8.61538 4.75987 8.55055 4.60334 8.43514 4.48793C8.31973 4.37253 8.16321 4.30769 8 4.30769C7.83679 4.30769 7.68026 4.37253 7.56486 4.48793C7.44945 4.60334 7.38461 4.75987 7.38461 4.92308V7.38462H4.92308C4.75987 7.38462 4.60334 7.44945 4.48793 7.56486C4.37253 7.68026 4.30769 7.83679 4.30769 8C4.30769 8.16321 4.37253 8.31974 4.48793 8.43514C4.60334 8.55055 4.75987 8.61539 4.92308 8.61539H7.38461V11.0769C7.38461 11.2401 7.44945 11.3967 7.56486 11.5121C7.68026 11.6275 7.83679 11.6923 8 11.6923C8.16321 11.6923 8.31973 11.6275 8.43514 11.5121C8.55055 11.3967 8.61538 11.2401 8.61538 11.0769V8.61539Z" />
    </symbol>

    <symbol id="list-minus-icon" viewBox="0 0 16 16">
        <path d="M8 0C3.58885 0 0 3.58885 0 8C0 12.4112 3.58885 16 8 16C12.4112 16 16 12.4112 16 8C16 3.58885 12.4112 0 8 0ZM11.0769 8.61539H4.92308C4.75987 8.61539 4.60334 8.55055 4.48793 8.43514C4.37253 8.31974 4.30769 8.16321 4.30769 8C4.30769 7.83679 4.37253 7.68026 4.48793 7.56486C4.60334 7.44945 4.75987 7.38462 4.92308 7.38462H11.0769C11.2401 7.38462 11.3967 7.44945 11.5121 7.56486C11.6275 7.68026 11.6923 7.83679 11.6923 8C11.6923 8.16321 11.6275 8.31974 11.5121 8.43514C11.3967 8.55055 11.2401 8.61539 11.0769 8.61539Z" />
    </symbol>


    <symbol id="tmp-toggle-icon" viewBox="0 0 56 28">
        <rect width="56" height="28" rx="14" fill="#DFE5F0"/>
        <circle cx="14" cy="14" r="12" fill="white"/>
        <path d="M14 9.2C13.7971 9.2 13.6024 9.11938 13.4589 8.97587C13.3154 8.83237 13.2348 8.63773 13.2348 8.43478V6.76522C13.2348 6.56227 13.3154 6.36763 13.4589 6.22413C13.6024 6.08062 13.7971 6 14 6C14.2029 6 14.3976 6.08062 14.5411 6.22413C14.6846 6.36763 14.7652 6.56227 14.7652 6.76522V8.43478C14.7652 8.63773 14.6846 8.83237 14.5411 8.97587C14.3976 9.11938 14.2029 9.2 14 9.2ZM14 22C13.7971 22 13.6024 21.9194 13.4589 21.7759C13.3154 21.6324 13.2348 21.4377 13.2348 21.2348V19.5652C13.2348 19.3623 13.3154 19.1676 13.4589 19.0241C13.6024 18.8806 13.7971 18.8 14 18.8C14.2029 18.8 14.3976 18.8806 14.5411 19.0241C14.6846 19.1676 14.7652 19.3623 14.7652 19.5652V21.2348C14.7652 21.4377 14.6846 21.6324 14.5411 21.7759C14.3976 21.9194 14.2029 22 14 22ZM17.9353 10.8299C17.784 10.8299 17.6361 10.785 17.5103 10.701C17.3845 10.6169 17.2864 10.4974 17.2285 10.3576C17.1705 10.2178 17.1554 10.064 17.1848 9.91562C17.2143 9.7672 17.2871 9.63086 17.3941 9.52383L18.5746 8.3433C18.7187 8.20292 18.9124 8.12495 19.1136 8.12627C19.3148 8.1276 19.5073 8.20811 19.6496 8.35038C19.7919 8.49266 19.8724 8.68524 19.8737 8.88644C19.8751 9.08763 19.7971 9.28126 19.6567 9.42539L18.4762 10.6059C18.4052 10.677 18.3209 10.7334 18.2281 10.7719C18.1353 10.8103 18.0358 10.83 17.9353 10.8299ZM8.88417 19.881C8.73282 19.881 8.58487 19.8361 8.45904 19.752C8.33321 19.6679 8.23514 19.5484 8.17725 19.4085C8.11935 19.2687 8.10423 19.1148 8.13378 18.9664C8.16334 18.8179 8.23626 18.6816 8.3433 18.5746L9.52383 17.3941C9.59453 17.3215 9.67895 17.2637 9.77219 17.224C9.86543 17.1843 9.96562 17.1635 10.067 17.1628C10.1683 17.1621 10.2688 17.1816 10.3625 17.2201C10.4563 17.2585 10.5414 17.3153 10.6131 17.3869C10.6847 17.4586 10.7415 17.5437 10.7799 17.6375C10.8184 17.7312 10.8379 17.8317 10.8372 17.933C10.8365 18.0344 10.8157 18.1346 10.776 18.2278C10.7363 18.321 10.6785 18.4055 10.6059 18.4762L9.42539 19.6567C9.35441 19.7279 9.27005 19.7844 9.17717 19.8229C9.08429 19.8614 8.98472 19.8811 8.88417 19.881ZM21.2348 14.7652H19.5652C19.3623 14.7652 19.1676 14.6846 19.0241 14.5411C18.8806 14.3976 18.8 14.2029 18.8 14C18.8 13.7971 18.8806 13.6024 19.0241 13.4589C19.1676 13.3154 19.3623 13.2348 19.5652 13.2348H21.2348C21.4377 13.2348 21.6324 13.3154 21.7759 13.4589C21.9194 13.6024 22 13.7971 22 14C22 14.2029 21.9194 14.3976 21.7759 14.5411C21.6324 14.6846 21.4377 14.7652 21.2348 14.7652ZM8.43478 14.7652H6.76522C6.56227 14.7652 6.36763 14.6846 6.22413 14.5411C6.08062 14.3976 6 14.2029 6 14C6 13.7971 6.08062 13.6024 6.22413 13.4589C6.36763 13.3154 6.56227 13.2348 6.76522 13.2348H8.43478C8.63773 13.2348 8.83237 13.3154 8.97587 13.4589C9.11938 13.6024 9.2 13.7971 9.2 14C9.2 14.2029 9.11938 14.3976 8.97587 14.5411C8.83237 14.6846 8.63773 14.7652 8.43478 14.7652ZM19.1158 19.881C19.0153 19.8811 18.9157 19.8614 18.8228 19.8229C18.73 19.7844 18.6456 19.7279 18.5746 19.6567L17.3941 18.4762C17.2537 18.332 17.1757 18.1384 17.1771 17.9372C17.1784 17.736 17.2589 17.5434 17.4012 17.4012C17.5434 17.2589 17.736 17.1784 17.9372 17.1771C18.1384 17.1757 18.332 17.2537 18.4762 17.3941L19.6567 18.5746C19.7637 18.6816 19.8367 18.8179 19.8662 18.9664C19.8958 19.1148 19.8806 19.2687 19.8228 19.4085C19.7649 19.5484 19.6668 19.6679 19.541 19.752C19.4151 19.8361 19.2672 19.881 19.1158 19.881ZM10.0647 10.8299C9.96422 10.8301 9.8647 10.8104 9.77187 10.772C9.67904 10.7335 9.59474 10.6771 9.52383 10.6059L8.3433 9.42539C8.20292 9.28126 8.12495 9.08763 8.12627 8.88644C8.1276 8.68524 8.20811 8.49266 8.35038 8.35038C8.49266 8.20811 8.68524 8.1276 8.88644 8.12627C9.08763 8.12495 9.28126 8.20292 9.42539 8.3433L10.6059 9.52383C10.7129 9.63086 10.7857 9.7672 10.8152 9.91562C10.8446 10.064 10.8295 10.2178 10.7715 10.3576C10.7136 10.4974 10.6155 10.6169 10.4897 10.701C10.3639 10.785 10.216 10.8299 10.0647 10.8299ZM14 17.5478C13.2983 17.5478 12.6124 17.3397 12.0289 16.9499C11.4455 16.5601 10.9908 16.006 10.7222 15.3577C10.4537 14.7094 10.3835 13.9961 10.5203 13.3079C10.6572 12.6196 10.9951 11.9875 11.4913 11.4913C11.9875 10.9951 12.6196 10.6572 13.3079 10.5203C13.9961 10.3835 14.7094 10.4537 15.3577 10.7222C16.006 10.9908 16.5601 11.4455 16.9499 12.0289C17.3397 12.6124 17.5478 13.2983 17.5478 14C17.5467 14.9406 17.1726 15.8424 16.5075 16.5075C15.8424 17.1726 14.9406 17.5467 14 17.5478Z" fill="#CCD4E6"/>
    </symbol>


</svg>