<svg xmlns="http://www.w3.org/2000/svg" xmlns:xlink="http://www.w3.org/1999/xlink" version="1.1">

    <symbol id="main-logo-icon" viewBox="0 0 187 36">
        <path fill-rule="evenodd" clip-rule="evenodd" d="M6.86127 0L5.14489 4.70912H28.9302L30.6466 0H6.86127ZM4.28615 7.06258L2.56976 11.7706H26.3551L28.0714 7.06258H4.28615ZM1.71639 14.1252L0 18.8332H23.7853L25.5006 14.1252H1.71639Z" fill="#00AAFF"/>
        <path fill-rule="evenodd" clip-rule="evenodd" d="M50.5661 20.6279V20.7273C51.6529 21.1269 52.6913 21.8257 53.2354 22.2744C54.9161 23.672 55.6582 25.5184 55.6582 27.9139C55.6582 31.8577 53.5815 34.702 50.1701 35.6006C49.1318 35.8997 48.045 36.0002 46.0169 36.0002H35.6855V7.15332H44.8315C46.7103 7.15332 47.9951 7.25268 49.1318 7.55182C52.4448 8.45043 54.6198 10.7466 54.6198 14.389C54.6198 16.3358 53.9276 17.9835 52.7909 19.0808C52.2967 19.5798 51.6045 20.1792 50.5661 20.6279ZM41.4201 23.672V31.2582H45.3755C46.5608 31.2582 47.649 31.1589 48.4409 30.4099C49.2315 29.6609 49.5776 28.7131 49.5776 27.4652C49.5776 26.5174 49.3298 25.6188 48.8355 24.9702C47.9951 23.9221 46.9568 23.672 45.1776 23.672H41.4201ZM41.3704 18.6811H44.5838C45.5723 18.6811 46.0667 18.6811 46.5608 18.5316C47.8968 18.132 48.7372 16.9353 48.7372 15.2877C48.7372 13.342 47.847 12.4925 46.5608 12.094C46.0169 11.9444 45.474 11.8942 44.3859 11.8942H41.3704V18.6811ZM64.2599 36.0002V11.9935H56.0043V7.15332H78.9436L77.3127 11.9935H69.9949V36.0002H64.2599ZM80.7227 36.0002V7.15332H99.312L97.6811 11.9935H86.4087V18.382H91.0066C94.7142 18.382 96.6428 19.2806 97.9774 20.4281C99.0157 21.3267 100.795 23.3226 100.795 27.2664C100.795 31.1589 98.9659 33.3044 97.4333 34.4028C95.6543 35.6497 93.7755 36.0002 89.9682 36.0002H80.7227ZM86.4087 31.1589H90.7103C92.3412 31.1589 93.3297 30.7593 94.022 29.8607C94.3681 29.4119 94.8623 28.6127 94.8623 27.1158C94.8623 25.6188 94.3681 24.5706 93.3796 23.8216C92.787 23.3728 91.9951 23.1239 90.6605 23.1239H86.4087V31.1589Z" fill="#002882"/>
        <path fill-rule="evenodd" clip-rule="evenodd" d="M124.822 11.2261V11.6304C124.822 12.2788 124.735 12.8607 124.559 13.3763C124.383 13.8919 124.135 14.3313 123.815 14.6945C123.494 15.0539 123.112 15.3292 122.666 15.5206C122.225 15.712 121.735 15.8077 121.196 15.8077C120.661 15.8077 120.171 15.712 119.725 15.5206C119.284 15.3292 118.901 15.0539 118.577 14.6945C118.253 14.3313 118.001 13.8919 117.821 13.3763C117.645 12.8607 117.558 12.2788 117.558 11.6304V11.2261C117.558 10.5739 117.645 9.99189 117.821 9.48022C117.997 8.96465 118.245 8.52524 118.565 8.16199C118.889 7.79875 119.272 7.52144 119.714 7.33005C120.159 7.13866 120.649 7.04297 121.184 7.04297C121.723 7.04297 122.213 7.13866 122.655 7.33005C123.1 7.52144 123.483 7.79875 123.803 8.16199C124.127 8.52524 124.377 8.96465 124.553 9.48022C124.733 9.99189 124.822 10.5739 124.822 11.2261ZM123.047 11.6304V11.2144C123.047 10.7613 123.006 10.3629 122.924 10.0192C122.842 9.67551 122.721 9.38648 122.561 9.15213C122.401 8.91778 122.206 8.74201 121.975 8.62484C121.745 8.50376 121.481 8.44322 121.184 8.44322C120.887 8.44322 120.624 8.50376 120.393 8.62484C120.167 8.74201 119.973 8.91778 119.813 9.15213C119.657 9.38648 119.538 9.67551 119.456 10.0192C119.374 10.3629 119.333 10.7613 119.333 11.2144V11.6304C119.333 12.0796 119.374 12.478 119.456 12.8256C119.538 13.1693 119.659 13.4603 119.819 13.6985C119.979 13.9329 120.175 14.1106 120.405 14.2317C120.635 14.3528 120.899 14.4133 121.196 14.4133C121.493 14.4133 121.756 14.3528 121.987 14.2317C122.217 14.1106 122.411 13.9329 122.567 13.6985C122.723 13.4603 122.842 13.1693 122.924 12.8256C123.006 12.478 123.047 12.0796 123.047 11.6304Z" fill="#002882"/>
        <path d="M154.462 8.53696H152.183L152.036 11.4429C152.005 12.0835 151.944 12.6401 151.854 13.1127C151.768 13.5853 151.651 13.9876 151.503 14.3196C151.354 14.6477 151.171 14.9133 150.952 15.1164C150.737 15.3156 150.483 15.462 150.19 15.5558C149.898 15.6456 149.564 15.6905 149.189 15.6905H148.755V14.3196L148.978 14.302C149.169 14.2825 149.337 14.2317 149.482 14.1497C149.626 14.0676 149.749 13.9446 149.851 13.7806C149.956 13.6165 150.042 13.4076 150.108 13.1537C150.179 12.8959 150.233 12.5815 150.273 12.2104C150.315 11.8394 150.345 11.4058 150.36 10.9098L150.501 7.16014H156.219V15.6905H154.462V8.53696Z" fill="#002882"/>
        <path d="M169.694 26.7055H171.446C171.411 27.2796 171.253 27.7893 170.971 28.2346C170.694 28.6799 170.305 29.0275 169.805 29.2775C169.309 29.5274 168.712 29.6524 168.013 29.6524C167.466 29.6524 166.976 29.5587 166.542 29.3712C166.109 29.1798 165.737 28.9064 165.429 28.551C165.124 28.1955 164.892 27.7659 164.732 27.262C164.572 26.7582 164.492 26.1938 164.492 25.5689V24.9771C164.492 24.3522 164.574 23.7878 164.738 23.2839C164.906 22.7762 165.144 22.3446 165.452 21.9892C165.765 21.6337 166.138 21.3603 166.571 21.1689C167.005 20.9775 167.489 20.8818 168.024 20.8818C168.735 20.8818 169.335 21.0107 169.823 21.2685C170.315 21.5263 170.696 21.8817 170.965 22.3348C171.239 22.7879 171.403 23.3035 171.458 23.8815H169.7C169.68 23.5378 169.612 23.2468 169.495 23.0086C169.378 22.7664 169.2 22.5848 168.962 22.4637C168.727 22.3387 168.415 22.2762 168.024 22.2762C167.731 22.2762 167.476 22.3309 167.257 22.4403C167.038 22.5496 166.855 22.7156 166.706 22.9383C166.558 23.1609 166.446 23.4421 166.372 23.7819C166.302 24.1178 166.267 24.5123 166.267 24.9654V25.5689C166.267 26.0102 166.3 26.3989 166.366 26.7348C166.433 27.0668 166.534 27.348 166.671 27.5784C166.812 27.805 166.991 27.9768 167.21 28.094C167.433 28.2073 167.7 28.2639 168.013 28.2639C168.38 28.2639 168.683 28.2053 168.921 28.0881C169.159 27.971 169.341 27.7971 169.466 27.5667C169.595 27.3363 169.671 27.0492 169.694 26.7055Z" fill="#002882"/>
        <path d="M176.358 29.5353V22.3817H178.983V21.0049H172.023V22.3817H174.607V29.5353H176.358Z" fill="#002882"/>
        <path d="M185.225 21.0049L181.798 26.7699V21.0049H180.04V29.5353H181.798L185.225 23.7702V29.5353H186.983V21.0049H185.225Z" fill="#002882"/>
        <path fill-rule="evenodd" clip-rule="evenodd" d="M163.364 25.4751V25.0709C163.364 24.4186 163.274 23.8366 163.094 23.325C162.919 22.8094 162.669 22.37 162.344 22.0067C162.024 21.6435 161.641 21.3662 161.196 21.1748C160.755 20.9834 160.265 20.8877 159.726 20.8877C159.19 20.8877 158.7 20.9834 158.255 21.1748C157.814 21.3662 157.431 21.6435 157.107 22.0067C156.786 22.37 156.538 22.8094 156.363 23.325C156.187 23.8366 156.099 24.4186 156.099 25.0709V25.4751C156.099 26.1235 156.187 26.7055 156.363 27.221C156.542 27.7366 156.794 28.176 157.118 28.5393C157.443 28.8986 157.825 29.174 158.267 29.3653C158.712 29.5567 159.202 29.6524 159.737 29.6524C160.276 29.6524 160.766 29.5567 161.208 29.3653C161.653 29.174 162.036 28.8986 162.356 28.5393C162.676 28.176 162.924 27.7366 163.1 27.221C163.276 26.7055 163.364 26.1235 163.364 25.4751ZM161.589 25.0592V25.4751C161.589 25.9243 161.548 26.3227 161.466 26.6703C161.384 27.014 161.264 27.305 161.108 27.5433C160.952 27.7776 160.759 27.9553 160.528 28.0764C160.298 28.1975 160.034 28.258 159.737 28.258C159.44 28.258 159.177 28.1975 158.946 28.0764C158.716 27.9553 158.521 27.7776 158.36 27.5433C158.2 27.305 158.079 27.014 157.997 26.6703C157.915 26.3227 157.874 25.9243 157.874 25.4751V25.0592C157.874 24.6061 157.915 24.2077 157.997 23.864C158.079 23.5202 158.198 23.2312 158.355 22.9969C158.515 22.7625 158.708 22.5867 158.935 22.4696C159.165 22.3485 159.429 22.2879 159.726 22.2879C160.022 22.2879 160.286 22.3485 160.516 22.4696C160.747 22.5867 160.942 22.7625 161.102 22.9969C161.262 23.2312 161.384 23.5202 161.466 23.864C161.548 24.2077 161.589 24.6061 161.589 25.0592Z" fill="#002882"/>
        <path d="M152.956 21.0049V24.4791H149.523V21.0049H147.765V29.5353H149.523V25.8501H152.956V29.5353H154.708V21.0049H152.956Z" fill="#002882"/>
        <path d="M144.018 29.5353V22.3817H146.643V21.0049H139.683V22.3817H142.267V29.5353H144.018Z" fill="#002882"/>
        <path d="M138.942 28.1643V29.5353H133.218V21.0049H138.936V22.3817H134.976V24.4791H138.35V25.8149H134.976V28.1643H138.942Z" fill="#002882"/>
        <path d="M126.583 21.0049H124.819V23.6238C124.819 24.2799 124.956 24.817 125.23 25.2349C125.507 25.6489 125.895 25.9536 126.395 26.1489C126.895 26.3442 127.485 26.4418 128.165 26.4418C128.298 26.4418 128.454 26.436 128.633 26.4242C128.817 26.4125 129.005 26.395 129.196 26.3715C129.387 26.3442 129.571 26.3129 129.747 26.2778C129.771 26.273 129.794 26.2681 129.817 26.2633V29.5353H131.575V21.0049H129.817V24.8981C129.794 24.903 129.771 24.9079 129.747 24.9127C129.571 24.9439 129.387 24.9732 129.196 25.0006C129.005 25.024 128.817 25.0416 128.633 25.0533C128.454 25.065 128.298 25.0709 128.165 25.0709C127.813 25.0709 127.518 25.0299 127.28 24.9478C127.046 24.8619 126.87 24.7135 126.753 24.5026C126.64 24.2917 126.583 23.9987 126.583 23.6238V21.0049Z" fill="#002882"/>
        <path d="M121.02 22.3817V29.5353H119.268V22.3817H116.685V21.0049H123.645V22.3817H121.02Z" fill="#002882"/>
        <path fill-rule="evenodd" clip-rule="evenodd" d="M116.219 25.4751V25.0709C116.219 24.4186 116.129 23.8366 115.949 23.325C115.774 22.8094 115.524 22.37 115.2 22.0067C114.879 21.6435 114.497 21.3662 114.051 21.1748C113.61 20.9834 113.12 20.8877 112.581 20.8877C112.046 20.8877 111.555 20.9834 111.11 21.1748C110.669 21.3662 110.286 21.6435 109.962 22.0067C109.642 22.37 109.394 22.8094 109.218 23.325C109.042 23.8366 108.954 24.4186 108.954 25.0709V25.4751C108.954 26.1235 109.042 26.7055 109.218 27.221C109.397 27.7366 109.649 28.176 109.974 28.5393C110.298 28.8986 110.68 29.174 111.122 29.3653C111.567 29.5567 112.057 29.6524 112.592 29.6524C113.131 29.6524 113.622 29.5567 114.063 29.3653C114.508 29.174 114.891 28.8986 115.211 28.5393C115.532 28.176 115.78 27.7366 115.955 27.221C116.131 26.7055 116.219 26.1235 116.219 25.4751ZM114.444 25.0592V25.4751C114.444 25.9243 114.403 26.3227 114.321 26.6703C114.239 27.014 114.12 27.305 113.963 27.5433C113.807 27.7776 113.614 27.9553 113.383 28.0764C113.153 28.1975 112.889 28.258 112.592 28.258C112.296 28.258 112.032 28.1975 111.801 28.0764C111.571 27.9553 111.376 27.7776 111.216 27.5433C111.055 27.305 110.934 27.014 110.852 26.6703C110.77 26.3227 110.729 25.9243 110.729 25.4751V25.0592C110.729 24.6061 110.77 24.2077 110.852 23.864C110.934 23.5202 111.053 23.2312 111.21 22.9969C111.37 22.7625 111.563 22.5867 111.79 22.4696C112.02 22.3485 112.284 22.2879 112.581 22.2879C112.878 22.2879 113.141 22.3485 113.372 22.4696C113.602 22.5867 113.797 22.7625 113.957 22.9969C114.118 23.2312 114.239 23.5202 114.321 23.864C114.403 24.2077 114.444 24.6061 114.444 25.0592Z" fill="#002882"/>
        <path fill-rule="evenodd" clip-rule="evenodd" d="M145.073 7.16014L148.26 15.6905H146.385L145.794 13.8919H142.728L142.138 15.6905H140.269L143.438 7.16014H145.073ZM143.18 12.5151H145.341L144.259 9.22537L143.18 12.5151Z" fill="#002882"/>
        <path d="M137.876 8.53696V15.6905H136.124V8.53696H133.54V7.16014H140.5V8.53696H137.876Z" fill="#002882"/>
        <path fill-rule="evenodd" clip-rule="evenodd" d="M127.966 12.6498H129.53C130.198 12.6498 130.77 12.5405 131.247 12.3217C131.727 12.103 132.094 11.7925 132.348 11.3902C132.602 10.9879 132.729 10.5114 132.729 9.96064C132.729 9.41773 132.602 8.93535 132.348 8.51352C132.094 8.09169 131.727 7.76165 131.247 7.52339C130.77 7.28123 130.198 7.16014 129.53 7.16014H126.208V15.6905H127.966V12.6498ZM129.53 11.2789H127.966V8.53696H129.53C129.866 8.53696 130.139 8.60336 130.35 8.73615C130.561 8.86895 130.715 9.04472 130.813 9.26344C130.911 9.48217 130.959 9.71848 130.959 9.97236C130.959 10.2223 130.911 10.4469 130.813 10.6461C130.715 10.8453 130.561 11.0015 130.35 11.1148C130.139 11.2242 129.866 11.2789 129.53 11.2789Z" fill="#002882"/>
        <path d="M116.16 15.6905V7.16014H109.218V15.6905H110.975V8.53696H114.403V15.6905H116.16Z" fill="#002882"/>
    </symbol>

    <symbol id="development-bg" viewBox="0 0 1042 862" width="100%" height="100%" preserveAspectRatio="xMaxYMax meet">   
        <path d="M23.0179 249.285H220.735C223.862 249.285 226.4 246.753 226.405 243.629C226.405 231.37 212.366 221.132 193.632 218.646C190.999 207.237 181.061 198.287 168.48 196.04C168.812 194.176 168.993 192.269 168.993 190.323C168.993 170.813 151.637 155 130.224 155C111.236 155 95.446 167.445 92.1158 183.872C88.2452 182.359 83.9824 181.515 79.5 181.515C64.2781 181.515 51.5635 191.197 48.2909 204.162C46.1101 203.946 43.877 203.828 41.5974 203.828C18.6233 203.828 0 215.275 0 229.394C0 233.412 1.51151 237.213 4.19982 240.595C8.70686 246.262 15.7732 249.285 23.0179 249.285Z" fill="#E7F1F8"/>
        <path d="M271.178 119H521.812C525.777 119 528.993 115.804 529 111.861C529 96.3892 511.203 83.4667 487.456 80.3295C484.118 65.9301 471.519 54.6333 455.572 51.797C455.993 49.445 456.222 47.0376 456.222 44.5818C456.222 19.9579 434.221 -4.14386e-06 407.077 -4.14386e-06C383.007 -4.14386e-06 362.991 15.7069 358.77 36.4395C353.863 34.5302 348.459 33.4649 342.777 33.4649C323.481 33.4649 307.364 45.6852 303.215 62.0492C300.451 61.776 297.62 61.6272 294.73 61.6272C265.608 61.6272 242 76.075 242 93.8953C242 98.966 243.916 103.764 247.324 108.032C253.037 115.185 261.995 119 271.178 119Z" fill="#E7F1F8"/>
        <path d="M1042 862H195.148C155.687 822.172 127.974 769.382 118.516 714.527C86.0001 525.905 213.509 420.696 366.09 380.942V645.258C366.09 657.507 376.029 667.437 388.288 667.437H835.763C848.024 667.437 857.961 657.507 857.961 645.258V363.171C857.961 350.922 848.024 340.992 835.763 340.992H624.048C643.372 330.218 660.652 313.829 676.158 288.766C714.904 226.143 761.717 175.652 837.861 162.357C852.266 159.842 866.586 159.11 880.849 159.11C890.757 159.11 900.635 159.464 910.505 159.817C920.371 160.17 930.232 160.521 940.091 160.521C963.436 160.521 986.779 158.546 1010.31 149.904C1021.24 145.887 1031.91 141.076 1041.99 135.527L1042 862ZM645.047 777.358C599.936 777.358 563.364 780.271 563.364 783.864C563.364 787.46 599.936 790.372 645.047 790.372C690.158 790.372 726.728 787.46 726.728 783.864C726.728 780.271 690.158 777.358 645.047 777.358ZM867.514 748.157C868.969 748.157 870.416 748.277 871.858 748.506C884.961 750.562 903.207 751.841 923.4 751.841C963.279 751.841 995.605 746.864 995.605 740.723C995.605 734.583 963.279 729.606 923.4 729.606C916.765 729.606 910.343 729.743 904.244 730.003C903.792 730.023 903.339 730.033 902.887 730.033C900.532 730.033 898.185 729.775 895.864 729.318C862.287 722.746 719.368 717.805 548.126 717.805C351.942 717.805 192.9 724.29 192.9 732.286C192.9 740.284 351.942 746.768 548.126 746.768C616.563 746.768 680.467 745.978 734.69 744.611C745.973 747.387 778.668 749.394 817.262 749.394C835.389 749.394 852.212 748.952 866.131 748.194C866.593 748.169 867.055 748.157 867.514 748.157ZM159.387 859.815C108.957 818.741 73.0512 757.525 62.0136 693.503C73.0537 757.525 108.957 818.741 159.387 859.815Z" fill="#E7F1F8"/>
        <path d="M463.471 340.992H463.446C521.965 339.274 568.292 332.959 605.356 287.865C568.3 332.952 521.978 339.272 463.471 340.992ZM1041.99 135.527V64.0004C1041.99 63.9979 1041.99 91.1983 1042 135.525C1041.99 135.525 1041.99 135.527 1041.99 135.527Z" fill="#F1DDF0"/>
        <path d="M195.148 862H162.106C161.195 861.278 160.288 860.55 159.387 859.815C108.957 818.741 73.0537 757.525 62.0136 693.503C58.5669 673.499 56.9161 654.434 56.9062 636.285C56.9062 636.177 56.9062 636.069 56.9062 635.961C56.9996 459.952 211.308 370.259 372.782 347.302C368.655 351.329 366.09 356.952 366.09 363.171V380.942C213.509 420.696 86.0001 525.905 118.516 714.527C127.974 769.382 155.687 822.172 195.148 862ZM624.048 340.992H463.471C521.978 339.272 568.3 332.952 605.356 287.865C610.284 281.869 615.049 275.189 619.656 267.743C658.402 205.118 705.215 154.626 781.358 141.332C795.766 138.816 810.079 138.087 824.342 138.087C834.249 138.087 844.132 138.438 854.001 138.791C863.874 139.145 873.727 139.498 883.588 139.498C906.929 139.496 930.281 137.518 953.806 128.879C990.157 115.53 1023.63 93.5596 1041.99 64.0006V135.527C1031.91 141.076 1021.24 145.887 1010.31 149.904C986.779 158.546 963.436 160.521 940.091 160.521C930.232 160.521 920.371 160.17 910.506 159.817C900.635 159.464 890.757 159.11 880.849 159.11C866.586 159.11 852.266 159.842 837.861 162.357C761.717 175.652 714.904 226.143 676.158 288.766C660.652 313.829 643.372 330.218 624.048 340.992Z" fill="#CBDFEE"/>
        <path d="M923.399 751.841C903.205 751.841 884.96 750.563 871.856 748.506C870.414 748.278 868.967 748.157 867.513 748.157C867.053 748.157 866.592 748.17 866.13 748.194C852.211 748.953 835.387 749.394 817.26 749.394C778.666 749.394 745.971 747.387 734.688 744.611C680.465 745.978 616.561 746.768 548.124 746.768C351.941 746.768 192.898 740.284 192.898 732.286C192.898 724.29 351.941 717.806 548.124 717.806C719.366 717.806 862.285 722.746 895.862 729.319C898.184 729.775 900.53 730.033 902.886 730.033C903.338 730.033 903.79 730.023 904.242 730.003C910.342 729.743 916.763 729.606 923.399 729.606C963.277 729.606 995.604 734.583 995.604 740.724C995.604 746.864 963.277 751.841 923.399 751.841Z" fill="#CBDFEE"/>
        <path d="M820.555 320.652H997.619C1000.42 320.652 1002.69 318.385 1002.7 315.587C1002.7 304.609 990.124 295.44 973.347 293.214C970.989 282.997 962.089 274.981 950.822 272.969C951.12 271.3 951.282 269.592 951.282 267.849C951.282 250.377 935.739 236.216 916.562 236.216C899.558 236.216 885.417 247.361 882.435 262.072C878.969 260.717 875.151 259.961 871.137 259.961C857.505 259.961 846.119 268.632 843.188 280.243C841.235 280.049 839.235 279.944 837.194 279.944C816.619 279.944 799.941 290.195 799.941 302.839C799.941 306.437 801.295 309.841 803.703 312.87C807.739 317.945 814.067 320.652 820.555 320.652Z" fill="white"/>
        <path d="M729.122 219.429H841.729C843.508 219.429 844.955 217.989 844.957 216.209C844.957 209.227 836.961 203.396 826.292 201.979C824.793 195.481 819.131 190.386 811.967 189.104C812.156 188.044 812.257 186.957 812.257 185.848C812.257 174.737 802.374 165.73 790.179 165.73C779.365 165.73 770.371 172.818 768.475 182.174C766.271 181.312 763.842 180.834 761.289 180.834C752.62 180.834 745.378 186.346 743.516 193.731C742.273 193.608 741.002 193.539 739.7 193.539C726.619 193.539 716.014 200.06 716.014 208.1C716.014 210.39 716.871 212.555 718.404 214.481C720.969 217.706 724.995 219.429 729.122 219.429Z" fill="white"/>
        <path d="M645.044 790.37C599.933 790.37 563.361 787.458 563.361 783.862C563.361 780.268 599.933 777.356 645.044 777.356C690.155 777.356 726.725 780.268 726.725 783.862C726.725 787.458 690.155 790.37 645.044 790.37Z" fill="#CBDFEE"/>
        <path d="M844.295 430.447C844.295 430.447 836.411 418.473 841.295 406.457L848.955 419.342L847.012 410.651C847.012 410.651 850.161 410.2 851.52 415.574L852.89 420.802C852.89 420.802 855.745 424.515 853.387 428.283L844.295 430.447Z" fill="#F8B385"/>
        <path d="M943.383 486.096C945.319 480.964 942.761 469.12 924.651 471.724C903.986 474.696 880.019 473.881 857.487 439.18C855.355 435.892 853.954 432.156 853.387 428.281C849.193 426.983 844.295 430.446 844.295 430.446L845.45 436.348C845.45 436.348 854.338 492.857 915.648 495.778C930.712 496.497 940.189 494.573 943.383 486.096Z" fill="#F8B385"/>
        <path d="M911.32 472.808C911.799 472.813 911.989 495.532 911.989 495.532C911.989 495.532 943.35 502.52 943.89 483.342C944.433 464.162 911.32 472.808 911.32 472.808Z" fill="#A6C3D9"/>
        <path d="M558.996 211.497C569.634 203.15 585.047 204.687 593.78 215.129C602.678 225.771 601.258 241.606 590.606 250.495C580.153 259.22 564.713 257.993 555.729 247.889C546.991 236.81 548.423 220.845 558.996 211.497ZM605.508 287.682L624.583 271.761L615.347 260.717C618.218 256.751 620.454 252.454 622.036 247.95L636.383 249.236L638.604 224.507L624.254 223.221C623.5 218.506 622.068 213.88 619.945 209.467L631.003 200.239L615.067 181.185L604.012 190.413C600.042 187.544 595.74 185.313 591.232 183.73L592.52 169.397L567.764 167.181L566.479 181.514C561.763 182.267 557.129 183.7 552.712 185.818L543.476 174.772L524.405 190.692L533.637 201.737C530.767 205.703 528.532 210 526.95 214.504L512.603 213.218L510.385 237.951L524.731 239.233C525.486 243.947 526.918 248.573 529.038 252.986L517.983 262.214L533.919 281.269L544.974 272.041C548.944 274.91 553.245 277.143 557.753 278.724L556.466 293.057L581.222 295.273L582.506 280.94C587.226 280.187 591.856 278.756 596.273 276.638L605.508 287.682Z" fill="#002882"/>
        <path d="M704.722 268.674C709.763 264.72 717.061 265.449 721.198 270.394C725.414 275.435 724.741 282.938 719.695 287.147C714.745 291.28 707.431 290.698 703.174 285.912C699.035 280.665 699.713 273.101 704.722 268.674ZM726.755 304.763L735.788 297.222L731.416 291.989C732.777 290.112 733.835 288.075 734.582 285.942L741.38 286.55L742.433 274.836L735.636 274.228C735.277 271.994 734.599 269.805 733.595 267.712L738.832 263.343L731.285 254.316L726.045 258.687C724.166 257.328 722.127 256.27 719.992 255.521L720.602 248.733L708.874 247.68L708.264 254.471C706.031 254.827 703.84 255.507 701.744 256.51L697.372 251.278L688.336 258.817L692.709 264.05C691.35 265.93 690.292 267.964 689.542 270.1L682.747 269.491L681.693 281.205L688.491 281.814C688.847 284.047 689.525 286.236 690.532 288.327L685.295 292.698L692.842 301.725L698.079 297.354C699.961 298.714 701.997 299.771 704.135 300.52L703.525 307.308L715.249 308.359L715.86 301.57C718.093 301.212 720.287 300.535 722.38 299.531L726.755 304.763Z" fill="#002882"/>
        <path d="M243.676 448.644C248.715 444.69 256.018 445.419 260.155 450.364C264.371 455.405 263.695 462.908 258.649 467.119C253.699 471.25 246.386 470.671 242.129 465.885C237.989 460.635 238.67 453.074 243.676 448.644ZM265.71 484.731L274.745 477.192L270.37 471.959C271.731 470.082 272.79 468.045 273.539 465.912L280.337 466.521L281.386 454.807L274.591 454.198C274.232 451.964 273.554 449.773 272.549 447.684L277.787 443.311L270.237 434.287L265 438.658C263.121 437.298 261.084 436.24 258.949 435.492L259.558 428.701L247.83 427.65L247.221 434.441C244.986 434.799 242.792 435.477 240.701 436.481L236.326 431.248L227.291 438.79L231.666 444.02C230.305 445.9 229.246 447.935 228.497 450.067L221.699 449.459L220.65 461.175L227.445 461.784C227.804 464.017 228.482 466.207 229.487 468.298L224.249 472.669L231.799 481.695L237.036 477.324C238.915 478.681 240.952 479.742 243.087 480.49L242.477 487.279L254.205 488.329L254.815 481.538C257.05 481.182 259.244 480.505 261.335 479.501L265.71 484.731Z" fill="#002882"/>
        <path d="M444.725 229.306L430.56 231.228C430.56 231.228 429.494 221.759 427.848 219.283C427.585 218.883 427.052 218.772 426.6 218.934C425.001 219.513 420.601 221.03 418.034 221.185C414.852 221.371 411.823 206.822 411.823 206.822L409.521 207.056C409.521 207.056 410.057 186.133 417.095 181.853C421.625 179.102 427.811 179.315 432.619 181.193C442.914 185.208 442.239 197.742 443.312 206.953C443.499 208.567 446.236 229.1 444.725 229.306Z" fill="#F9C39F"/>
        <path d="M413.328 213.087L419.61 211.185C419.61 211.185 413.91 217.636 413.328 213.087Z" fill="white"/>
        <path d="M413.328 213.086C413.328 213.086 412.441 211.246 413.984 210.983C415.527 210.72 419.61 211.182 419.61 211.182L413.328 213.086Z" fill="white"/>
        <path d="M407.826 207.379L411.821 206.822L410.669 196.043C411.344 196.043 408.551 205.148 407.826 207.379Z" fill="#F4AF81"/>
        <path d="M360.673 284.452C360.673 284.452 348.073 285.618 340.732 276.837L353.949 276.218L346.37 274.13C346.37 274.13 347.326 271.491 352.077 272.664L356.72 273.764C356.72 273.764 360.798 273.084 362.756 276.481L360.673 284.452Z" fill="#F8B385"/>
        <path d="M445.131 230.447C441.933 226.815 431.642 223.894 426.164 239.059C419.914 256.364 409.341 274.673 372.951 277.809C369.506 278.106 366.016 277.647 362.758 276.482C360.007 279.206 360.675 284.453 360.675 284.453L365.758 285.999C365.758 285.999 413.483 302.514 441.181 256.035C447.983 244.613 450.415 236.445 445.131 230.447Z" fill="#F8B385"/>
        <path d="M421.49 247.085C421.49 247.085 425.266 224.383 440.654 224.774C456.04 225.166 448.127 249.684 441.912 258.404L421.49 247.085Z" fill="#FBC20D"/>
        <path d="M416.004 308.169L357.794 318.175L353.482 393.901L360.567 391.957C360.567 391.957 381.439 349.543 370.61 328.115L380.144 315.826L416.004 308.169Z" fill="#002882"/>
        <path d="M452.521 319.308C452.521 319.308 449.18 338.019 417.305 343.799C388.887 348.955 369.995 333.825 366.237 330.485C365.944 330.227 365.485 330.377 365.421 330.762C364.682 335.29 359.854 357.037 330.78 404.525L324.086 406.363L350.63 310.249C350.873 309.371 351.669 308.76 352.58 308.752L415.998 308.168L452.521 319.308Z" fill="#4467B5"/>
        <path d="M440.119 222.119C446.774 221.675 451.127 226.964 452.748 233.426C469.058 298.447 452.527 319.308 452.527 319.308L416.997 308.168C416.997 308.168 423.2 272.647 422.2 269.975C421.679 268.591 418.662 266.929 415.874 264.217C411.518 259.981 411.01 253.151 414.582 248.237L428.59 228.962C431.122 224.976 435.404 222.436 440.119 222.119Z" fill="#CBDFEE"/>
        <path d="M444.575 222.854L444.32 221.502C445.924 222.214 435.866 218.378 428.548 225.267L427.875 230.08C427.875 230.08 434.54 224.4 444.575 222.854Z" fill="#A6C3D9"/>
        <path d="M338.878 269.464L320.095 235.325L317.764 236.607L336.55 270.745L338.878 269.464Z" fill="#6B50AC"/>
        <path d="M339.954 272.979L318.525 234.03L315.867 235.49L337.296 274.439L339.954 272.979Z" fill="#25265F"/>
        <path d="M337.432 274.415L378.05 278.021L377.541 275.034L339.124 271.625L337.432 274.415Z" fill="#322E7E"/>
        <path d="M357.425 285.107C357.425 285.107 344.793 284.358 338.865 274.568L352.028 275.953L344.852 272.742C344.852 272.742 346.193 270.281 350.714 272.158L355.135 273.947C355.135 273.947 359.27 273.889 360.692 277.543L357.425 285.107Z" fill="#F9C39F"/>
        <path d="M449.085 244.476C446.474 240.402 436.74 235.96 429.032 250.126C420.232 266.287 407.013 282.789 370.569 280.394C367.115 280.168 363.734 279.186 360.693 277.542C357.561 279.82 357.426 285.106 357.426 285.106L362.216 287.403C362.216 287.403 406.895 310.935 441.305 269.173C449.761 258.912 453.399 251.203 449.085 244.476Z" fill="#F9C39F"/>
        <path d="M360.775 391.52L353.481 393.191C353.481 393.191 334.376 402.466 339.179 405.813C339.179 405.813 352.53 403.941 355.56 401.818L355.444 402.719L361.509 400.939L360.775 391.52Z" fill="#262528"/>
        <path d="M331.267 404.184L323.789 404.446C323.789 404.446 303.269 409.932 307.349 414.126C307.349 414.126 320.812 414.82 324.19 413.309L323.905 414.17L330.198 413.574L331.267 404.184Z" fill="#262528"/>
        <path d="M422.771 260.106C423.027 259.772 439.206 271.624 439.206 271.624C439.206 271.624 460.694 253.158 447.409 242.659C434.121 232.157 422.771 260.106 422.771 260.106Z" fill="#A6C3D9"/>
        <path d="M462.345 226.452C461.613 222.177 458 219.563 455.548 216.285C452.809 212.625 453.452 208.595 453.308 204.323C453.15 199.603 452.02 195.099 449.74 190.944C447.299 186.49 444.009 182.563 440.405 179.002C436.789 175.426 432.299 174.486 427.346 174.133C425.928 174.032 424.833 174.071 423.995 174.219C422.062 174.41 419.794 174.96 417.183 176.096C416.694 176.312 416.203 176.531 415.714 176.754C409.56 179.574 404.777 185.057 403.696 191.735L403.669 191.894C403.33 194.12 404.831 196.255 407.015 196.805C409.675 197.475 412.69 197.556 415.436 197.041L415.493 197.043C419.347 196.7 432.321 192.429 432.321 192.429C432.321 192.429 432.176 193.004 432.092 193.997C431.925 196.025 432.028 199.792 434.192 204.008C434.232 203.329 434.269 202.644 434.305 201.962C434.328 201.586 434.303 201.174 434.369 200.801C434.809 198.395 438.796 197.853 439.764 200.131C439.995 200.675 440.066 201.267 440.064 201.866C440.059 203.034 438.966 204.455 438.224 205.282C437.919 205.618 437.482 205.81 437.339 206.266C437.339 206.266 435.504 214.542 437.339 217.814C439.172 221.083 448.166 224.585 447.996 228.615C447.824 232.645 447.163 240.417 454.673 241.583C462.181 242.751 463.488 233.135 462.345 226.452Z" fill="#25265F"/>
        <path d="M404.165 198.688C404.165 198.688 430.112 196.131 447.996 188.064C447.996 188.064 443.444 166.741 421.487 169.134C399.532 171.525 402.495 196.298 404.165 198.688Z" fill="#F5F238"/>
        <path d="M404.167 196.897C403.701 196.227 403.145 193.765 403.052 190.56C402.937 194.636 403.617 197.898 404.167 198.688C404.167 198.688 430.114 196.131 447.998 188.064C447.998 188.064 447.856 187.438 447.546 186.469C429.679 194.379 404.167 196.897 404.167 196.897Z" fill="#F3C70A"/>
        <path d="M407.015 197.204C406.227 194.455 406.015 191.576 406.131 188.71C406.259 185.838 406.75 182.947 407.804 180.194C408.88 177.465 410.467 174.861 412.678 172.843C414.928 170.85 417.763 169.694 420.578 169.343C418.068 170.745 415.867 172.269 414.127 174.272C412.467 176.326 411.184 178.63 410.243 181.119C409.241 183.588 408.674 186.251 408.148 188.931C407.669 191.631 407.305 194.377 407.015 197.204Z" fill="#F3C70A"/>
        <path d="M835.764 667.435H388.29C376.031 667.435 366.092 657.505 366.092 645.256V363.169C366.092 350.92 376.031 340.99 388.29 340.99H835.764C848.025 340.99 857.962 350.92 857.962 363.169V645.256C857.962 657.505 848.025 667.435 835.764 667.435Z" fill="#00AAFF"/>
        <path d="M388.955 613.852H835.108V367.028H388.955V613.852Z" fill="#E7F1F8"/>
        <path d="M623.318 641.055C623.318 647.284 618.264 652.332 612.029 652.332C605.795 652.332 600.736 647.284 600.736 641.055C600.736 634.826 605.795 629.775 612.029 629.775C618.264 629.775 623.318 634.826 623.318 641.055Z" fill="white"/>
        <path d="M676.718 712.711H547.34V667.435H676.718V712.711Z" fill="#078CCE"/>
        <path d="M725.168 732.671H498.883C498.883 719.053 509.935 708.014 523.565 708.014H700.486C714.118 708.014 725.168 719.053 725.168 732.671Z" fill="#078CCE"/>
        <path d="M547.34 667.436H676.718V708.015L547.34 667.436Z" fill="#0176B1"/>
        <path d="M748.949 600.724H463.521C456.642 600.724 451.061 595.148 451.061 588.276V392.736C451.061 384.308 457.9 377.475 466.338 377.475H761.193C767.71 377.475 772.992 382.752 772.992 389.261V576.704C772.992 589.969 762.227 600.724 748.949 600.724Z" fill="#F3F7FA"/>
        <path d="M772.992 407.258H451.061V391.654C451.061 383.825 457.416 377.476 465.257 377.476H761.915C768.034 377.476 772.992 382.428 772.992 388.539V407.258Z" fill="white"/>
        <path d="M733.808 393.301C733.808 397.032 730.779 400.058 727.043 400.058C723.306 400.058 720.277 397.032 720.277 393.301C720.277 389.568 723.306 386.542 727.043 386.542C730.779 386.542 733.808 389.568 733.808 393.301Z" fill="#CCD4E6"/>
        <rect x="470.646" y="386.468" width="139.704" height="13.4331" rx="6.71656" fill="#CCD4E6"/>
        <path d="M752.866 393.301C752.866 397.032 749.837 400.058 746.101 400.058C742.364 400.058 739.338 397.032 739.338 393.301C739.338 389.568 742.364 386.542 746.101 386.542C749.837 386.542 752.866 389.568 752.866 393.301Z" fill="#CCD4E6"/>
        <path d="M472.197 498.002H659.225V419.113H472.197V498.002Z" fill="white"/>
        <path d="M472.197 522.604H659.225V509.611H472.197V522.604Z" fill="#CCD4E6"/>
        <path d="M472.197 543.074H659.225V530.081H472.197V543.074Z" fill="#CCD4E6"/>
        <path d="M472.197 563.54H659.225V550.547H472.197V563.54Z" fill="#CCD4E6"/>
        <path d="M472.197 584.004H659.225V571.011H472.197V584.004Z" fill="#CCD4E6"/>
        <path d="M672.279 543.074H751.864V419.112H672.279V543.074Z" fill="white"/>
        <path d="M672.279 568.377H751.864V557.438H672.279V568.377Z" fill="#CCD4E6"/>
        <path d="M672.279 584.004H751.864V573.066H672.279V584.004Z" fill="#CCD4E6"/>
        <path d="M747.955 501.474C754.306 496.489 763.506 497.407 768.719 503.641C774.03 509.992 773.182 519.446 766.822 524.752C760.585 529.96 751.365 529.226 746.005 523.194C740.789 516.584 741.644 507.052 747.955 501.474ZM775.72 546.951L787.104 537.448L781.594 530.853C783.306 528.485 784.643 525.92 785.586 523.233L794.15 523.999L795.476 509.239L786.91 508.471C786.463 505.658 785.605 502.897 784.338 500.259L790.939 494.751L781.427 483.378L774.826 488.886C772.455 487.173 769.888 485.84 767.2 484.898L767.967 476.34L753.19 475.017L752.421 483.575C749.606 484.024 746.842 484.88 744.204 486.142L738.689 479.55L727.302 489.053L732.82 495.647C731.103 498.013 729.769 500.578 728.828 503.268L720.259 502.502L718.938 517.262L727.501 518.03C727.951 520.843 728.808 523.604 730.071 526.237L723.472 531.747L732.985 543.12L739.583 537.612C741.954 539.326 744.521 540.658 747.213 541.603L746.444 550.159L761.221 551.484L761.992 542.926C764.805 542.477 767.571 541.62 770.207 540.356L775.72 546.951Z" fill="#002882"/>
        <path d="M430.469 441.335C434.424 438.232 440.15 438.804 443.393 442.682C446.7 446.638 446.172 452.521 442.216 455.825C438.333 459.064 432.596 458.61 429.255 454.853C426.01 450.739 426.543 444.81 430.469 441.335ZM447.754 469.64L454.839 463.725L451.407 459.624C452.473 458.149 453.303 456.551 453.893 454.877L459.221 455.358L460.047 446.167L454.718 445.688C454.436 443.939 453.903 442.221 453.116 440.579L457.224 437.153L451.303 430.072L447.196 433.498C445.719 432.436 444.123 431.606 442.447 431.019L442.926 425.694L433.729 424.869L433.25 430.195C431.498 430.475 429.776 431.007 428.135 431.793L424.706 427.689L417.618 433.604L421.048 437.707C419.984 439.182 419.151 440.778 418.566 442.451L413.233 441.973L412.41 451.164L417.741 451.64C418.021 453.392 418.554 455.11 419.34 456.75L415.233 460.176L421.153 467.256L425.261 463.83C426.737 464.895 428.334 465.725 430.009 466.312L429.533 471.637L438.728 472.459L439.207 467.134C440.959 466.856 442.678 466.321 444.322 465.536L447.754 469.64Z" fill="#002882"/>
        <path d="M251.021 727.435C246.864 727.435 243.496 724.07 243.496 719.918V528.989C243.496 524.837 246.864 521.472 251.021 521.472C255.175 521.472 258.543 524.837 258.543 528.989V719.918C258.543 724.07 255.175 727.435 251.021 727.435Z" fill="#A6C3D9"/>
        <path d="M457.98 727.435C453.823 727.435 450.455 724.07 450.455 719.918V528.989C450.455 524.837 453.823 521.472 457.98 521.472C462.134 521.472 465.502 524.837 465.502 528.989V719.918C465.502 724.07 462.134 727.435 457.98 727.435Z" fill="#A6C3D9"/>
        <path d="M499.95 538.054H209.051V589.544H499.95V538.054Z" fill="white"/>
        <mask id="mask0_16124_1277" style="mask-type:luminance" maskUnits="userSpaceOnUse" x="209" y="538" width="80" height="52">
        <path d="M224.254 538.054H209.055V561.808L243.413 589.544H288.038L224.254 538.054Z" fill="white"/>
        </mask>
        <g mask="url(#mask0_16124_1277)">
        <path d="M224.254 538.054H209.055V561.808L243.413 589.544H288.038L224.254 538.054Z" fill="#F49719"/>
        </g>
        <mask id="mask1_16124_1277" style="mask-type:luminance" maskUnits="userSpaceOnUse" x="258" y="538" width="109" height="52">
        <path d="M366.586 589.544L302.8 538.054H258.178L321.962 589.544H366.586Z" fill="white"/>
        </mask>
        <g mask="url(#mask1_16124_1277)">
        <path d="M366.586 589.544L302.8 538.054H258.178L321.962 589.544H366.586Z" fill="#F49719"/>
        </g>
        <mask id="mask2_16124_1277" style="mask-type:luminance" maskUnits="userSpaceOnUse" x="336" y="538" width="110" height="52">
        <path d="M445.117 589.544L381.334 538.054H336.709L400.493 589.544H445.117Z" fill="white"/>
        </mask>
        <g mask="url(#mask2_16124_1277)">
        <path d="M445.117 589.544L381.334 538.054H336.709L400.493 589.544H445.117Z" fill="#F49719"/>
        </g>
        <mask id="mask3_16124_1277" style="mask-type:luminance" maskUnits="userSpaceOnUse" x="415" y="538" width="85" height="52">
        <path d="M499.951 570.408L459.871 538.054H415.246L479.03 589.544H499.951V570.408Z" fill="white"/>
        </mask>
        <g mask="url(#mask3_16124_1277)">
        <path d="M499.951 570.408L459.871 538.054H415.246L479.03 589.544H499.951V570.408Z" fill="#F49719"/>
        </g>
        <path d="M499.95 615.651H209.051V667.141H499.95V615.651Z" fill="white"/>
        <mask id="mask4_16124_1277" style="mask-type:luminance" maskUnits="userSpaceOnUse" x="209" y="615" width="80" height="53">
        <path d="M224.254 615.651H209.055V639.406L243.413 667.142H288.038L224.254 615.651Z" fill="white"/>
        </mask>
        <g mask="url(#mask4_16124_1277)">
        <path d="M224.254 615.651H209.055V639.406L243.413 667.142H288.038L224.254 615.651Z" fill="#F49719"/>
        </g>
        <mask id="mask5_16124_1277" style="mask-type:luminance" maskUnits="userSpaceOnUse" x="258" y="615" width="109" height="53">
        <path d="M366.586 667.142L302.8 615.651H258.178L321.962 667.142H366.586Z" fill="white"/>
        </mask>
        <g mask="url(#mask5_16124_1277)">
        <path d="M366.586 667.142L302.8 615.651H258.178L321.962 667.142H366.586Z" fill="#F49719"/>
        </g>
        <mask id="mask6_16124_1277" style="mask-type:luminance" maskUnits="userSpaceOnUse" x="336" y="615" width="110" height="53">
        <path d="M445.117 667.141L381.334 615.651H336.709L400.493 667.141H445.117Z" fill="white"/>
        </mask>
        <g mask="url(#mask6_16124_1277)">
        <path d="M445.117 667.141L381.334 615.651H336.709L400.493 667.141H445.117Z" fill="#F49719"/>
        </g>
        <mask id="mask7_16124_1277" style="mask-type:luminance" maskUnits="userSpaceOnUse" x="415" y="615" width="85" height="53">
        <path d="M499.951 648.008L459.871 615.651H415.246L479.03 667.142H499.951V648.008Z" fill="white"/>
        </mask>
        <g mask="url(#mask7_16124_1277)">
        <path d="M499.951 648.008L459.871 615.651H415.246L479.03 667.142H499.951V648.008Z" fill="#F49719"/>
        </g>
        <path d="M267.325 732.671H234.713C234.713 725.279 240.71 719.291 248.106 719.291H253.931C261.328 719.291 267.325 725.279 267.325 732.671Z" fill="#B1ADB2"/>
        <path d="M475.809 732.671H443.197C443.197 725.279 449.191 719.291 456.591 719.291H462.413C469.812 719.291 475.809 725.279 475.809 732.671Z" fill="#B1ADB2"/>
        <path d="M814.345 615.651C812.323 615.651 810.488 616.832 809.651 618.672L757.209 734.206H871.481L819.037 618.672C818.202 616.832 816.367 615.651 814.345 615.651Z" fill="white"/>
        <mask id="mask8_16124_1277" style="mask-type:luminance" maskUnits="userSpaceOnUse" x="801" y="615" width="28" height="26">
        <path d="M828.978 640.557L819.046 618.675C818.21 616.834 816.375 615.654 814.353 615.654C812.332 615.654 810.497 616.834 809.659 618.675L801.832 635.921C810.189 640.137 819.372 640.954 828.978 640.557Z" fill="white"/>
        </mask>
        <g mask="url(#mask8_16124_1277)">
        <path d="M828.978 640.557L819.046 618.675C818.21 616.834 816.375 615.654 814.353 615.654C812.332 615.654 810.497 616.834 809.659 618.675L801.832 635.921C810.189 640.137 819.372 640.954 828.978 640.557Z" fill="#F49719"/>
        </g>
        <path d="M859.979 708.874L849.317 685.387C827.451 688.582 804.435 684.29 785.207 672.519L775.459 693.996C798.907 710.879 830.384 714.808 859.979 708.874Z" fill="white"/>
        <path d="M766.9 712.857L757.209 734.206H803.764C789.983 729.931 777.363 723.238 766.9 712.857Z" fill="white"/>
        <mask id="mask9_16124_1277" style="mask-type:luminance" maskUnits="userSpaceOnUse" x="766" y="693" width="106" height="42">
        <path d="M859.974 708.874C830.379 714.808 798.902 710.879 775.454 693.996L766.893 712.857C777.355 723.239 789.975 729.931 803.757 734.207H871.474L859.974 708.874Z" fill="white"/>
        </mask>
        <g mask="url(#mask9_16124_1277)">
        <path d="M859.974 708.874C830.379 714.808 798.902 710.879 775.454 693.996L766.893 712.857C777.355 723.239 789.975 729.931 803.757 734.207H871.474L859.974 708.874Z" fill="#F49719"/>
        </g>
        <mask id="mask10_16124_1277" style="mask-type:luminance" maskUnits="userSpaceOnUse" x="785" y="650" width="65" height="37">
        <path d="M849.321 685.383L838.114 660.694C823.104 661.03 808.424 658.279 795.399 650.072L785.211 672.516C804.439 684.286 827.455 688.579 849.321 685.383Z" fill="white"/>
        </mask>
        <g mask="url(#mask10_16124_1277)">
        <path d="M849.321 685.383L838.114 660.694C823.104 661.03 808.424 658.279 795.399 650.072L785.211 672.516C804.439 684.286 827.455 688.579 849.321 685.383Z" fill="#F49719"/>
        </g>
        <path d="M838.108 660.695L828.965 640.553C819.359 640.951 810.177 640.133 801.819 635.917L795.393 650.073C808.418 658.28 823.098 661.031 838.108 660.695Z" fill="white"/>
        <mask id="mask11_16124_1277" style="mask-type:luminance" maskUnits="userSpaceOnUse" x="743" y="731" width="143" height="12">
        <path d="M885.505 742.474H743.178V741.715C743.178 735.869 747.924 731.13 753.776 731.13H874.907C880.759 731.13 885.505 735.869 885.505 741.715V742.474Z" fill="white"/>
        </mask>
        <g mask="url(#mask11_16124_1277)">
        <path d="M885.505 742.474H743.178V741.715C743.178 735.869 747.924 731.13 753.776 731.13H874.907C880.759 731.13 885.505 735.869 885.505 741.715V742.474Z" fill="#D28927"/>
        </g>
        <path d="M644.106 671.008C642.308 671.008 640.674 672.058 639.93 673.695L593.264 776.504H694.951L648.285 673.695C647.543 672.058 645.909 671.008 644.106 671.008Z" fill="white"/>
        <mask id="mask12_16124_1277" style="mask-type:luminance" maskUnits="userSpaceOnUse" x="632" y="671" width="26" height="23">
        <path d="M657.131 693.164L648.294 673.694C647.552 672.057 645.919 671.007 644.115 671.007C642.317 671.007 640.684 672.057 639.939 673.694L632.975 689.038C640.411 692.793 648.584 693.52 657.131 693.164Z" fill="white"/>
        </mask>
        <g mask="url(#mask12_16124_1277)">
        <path d="M657.131 693.164L648.294 673.694C647.552 672.057 645.919 671.007 644.115 671.007C642.317 671.007 640.684 672.057 639.939 673.694L632.975 689.038C640.411 692.793 648.584 693.52 657.131 693.164Z" fill="#F49719"/>
        </g>
        <path d="M684.726 753.96L675.239 733.06C655.78 735.904 635.296 732.083 618.186 721.611L609.512 740.722C630.378 755.744 658.391 759.242 684.726 753.96Z" fill="white"/>
        <path d="M601.886 757.508L593.264 776.504H634.692C622.429 772.7 611.2 766.746 601.886 757.508Z" fill="white"/>
        <mask id="mask13_16124_1277" style="mask-type:luminance" maskUnits="userSpaceOnUse" x="601" y="740" width="94" height="37">
        <path d="M684.723 753.961C658.388 759.243 630.375 755.746 609.509 740.723L601.891 757.508C611.204 766.746 622.433 772.7 634.696 776.504H694.955L684.723 753.961Z" fill="white"/>
        </mask>
        <g mask="url(#mask13_16124_1277)">
        <path d="M684.723 753.961C658.388 759.243 630.375 755.746 609.509 740.723L601.891 757.508C611.204 766.746 622.433 772.7 634.696 776.504H694.955L684.723 753.961Z" fill="#F49719"/>
        </g>
        <mask id="mask14_16124_1277" style="mask-type:luminance" maskUnits="userSpaceOnUse" x="618" y="701" width="58" height="33">
        <path d="M675.238 733.057L665.267 711.086C651.908 711.386 638.846 708.939 627.253 701.635L618.186 721.608C635.296 732.08 655.779 735.901 675.238 733.057Z" fill="white"/>
        </mask>
        <g mask="url(#mask14_16124_1277)">
        <path d="M675.238 733.057L665.267 711.086C651.908 711.386 638.846 708.939 627.253 701.635L618.186 721.608C635.296 732.08 655.779 735.901 675.238 733.057Z" fill="#F49719"/>
        </g>
        <path d="M665.266 711.089L657.127 693.163C648.58 693.519 640.407 692.792 632.971 689.037L627.252 701.637C638.845 708.941 651.907 711.388 665.266 711.089Z" fill="white"/>
        <mask id="mask15_16124_1277" style="mask-type:luminance" maskUnits="userSpaceOnUse" x="580" y="773" width="128" height="11">
        <path d="M707.433 783.862H580.779V783.19C580.779 777.989 585.002 773.771 590.21 773.771H698.002C703.21 773.771 707.433 777.989 707.433 783.19V783.862Z" fill="white"/>
        </mask>
        <g mask="url(#mask15_16124_1277)">
        <path d="M707.433 783.862H580.779V783.19C580.779 777.989 585.002 773.771 590.21 773.771H698.002C703.21 773.771 707.433 777.989 707.433 783.19V783.862Z" fill="#D28927"/>
        </g>
        <path d="M937.674 472.893L922.025 475.018C922.025 475.018 920.846 464.558 919.025 461.819C918.733 461.377 918.146 461.257 917.647 461.436C915.878 462.077 911.019 463.751 908.179 463.92C904.669 464.129 901.318 448.051 901.318 448.051L898.775 448.308C898.775 448.308 899.365 425.192 907.143 420.463C912.152 417.419 918.988 417.657 924.3 419.731C935.674 424.168 934.93 438.015 936.111 448.196C936.32 449.977 939.347 472.664 937.674 472.893Z" fill="#F9C39F"/>
        <path d="M902.982 454.972L909.926 452.87C909.926 452.87 903.626 459.999 902.982 454.972Z" fill="white"/>
        <path d="M902.984 454.974C902.984 454.974 902.003 452.939 903.708 452.649C905.413 452.36 909.927 452.871 909.927 452.871L902.984 454.974Z" fill="white"/>
        <path d="M896.906 448.666L901.319 448.05L900.049 436.14C900.795 436.14 897.71 446.199 896.906 448.666Z" fill="#F4AF81"/>
        <path d="M965.098 571.595C965.098 571.595 923.247 574.206 909.674 566.37C909.674 566.37 931.54 648.209 937.385 664.751C943.229 681.293 953.412 733.966 953.412 733.966H962.69C962.69 733.966 963.589 659.528 953.412 643.856C953.412 643.856 968.115 576.818 965.098 571.595Z" fill="#4467B5"/>
        <path d="M909.674 566.37L914.477 657.352L922.131 729.318L932.673 729.178L934.518 655.781L909.674 566.37Z" fill="#002882"/>
        <path d="M965.697 573.468L909.506 574.449C909.506 574.449 908.755 529.684 916.967 478.53C917.842 473.076 921.477 462.985 933.842 464.251C945.049 465.397 951.962 478.562 956.718 496.252C964.375 524.716 965.697 573.468 965.697 573.468Z" fill="#CBDFEE"/>
        <path d="M962.679 732.889L952.604 733.041C952.604 733.041 929.249 738.983 933.934 743.992C933.934 743.992 949.693 745.116 953.687 743.425L954.741 744.323L963.811 743.638L962.679 732.889Z" fill="#262528"/>
        <path d="M932.718 729.012L922.645 729.161C922.645 729.161 899.288 735.106 903.973 740.115C903.973 740.115 919.732 741.239 923.726 739.545L924.78 740.444L933.85 739.761L932.718 729.012Z" fill="#262528"/>
        <path d="M840.694 465.903C840.694 465.903 829.954 456.405 831.521 443.53L842.289 453.965L838.14 446.085C838.14 446.085 841.061 444.828 843.78 449.661L846.468 454.348C846.468 454.348 850.197 457.188 848.905 461.441L840.694 465.903Z" fill="#F9C39F"/>
        <path d="M950.9 493.741C951.423 488.283 945.854 477.518 929.056 484.761C909.892 493.027 886.541 498.5 855.713 470.887C852.792 468.271 850.466 465.033 848.903 461.44C844.516 461.281 840.693 465.902 840.693 465.902L843.356 471.299C843.356 471.299 866.721 523.521 926.663 510.332C941.393 507.089 950.033 502.758 950.9 493.741Z" fill="#F9C39F"/>
        <path d="M916.482 489.286C916.947 489.168 923.074 511.048 923.074 511.048C923.074 511.048 955.172 509.602 950.676 490.948C946.183 472.295 916.482 489.286 916.482 489.286Z" fill="#A6C3D9"/>
        <path d="M939.327 465.959L938.146 458.933C938.146 458.933 926.622 459.912 920.463 467.874L919.854 471.224C919.854 471.224 931.294 467.233 939.327 465.959Z" fill="#A6C3D9"/>
        <path d="M941.203 443.297C941.554 442.454 942.004 441.644 942.379 440.81C945.469 433.912 941.662 424.512 936.583 419.592C935.445 418.493 934.447 417.264 933.623 415.908C930.186 410.288 925.013 408.575 918.684 408.893C910.401 409.309 902.128 411.921 896.058 417.862C893.995 419.879 892.617 422.61 892.461 425.523C891.915 435.755 906.005 434.795 912.539 433.545C914.182 433.231 915.805 432.715 917.286 431.914C918.323 431.356 919.453 429.682 920.761 429.812C922.175 429.951 922.322 431.787 922.459 432.918C922.632 434.36 921.781 441.867 923.741 442.22C926.035 442.633 925.893 438.832 926.182 437.419C926.593 435.412 928.979 434.117 930.737 435.356C933.565 437.348 930.629 442.109 930.176 444.579C929.486 448.349 930.121 453.399 932.365 456.546C933.716 458.441 935.672 459.202 937.925 458.965C940.573 458.683 943.865 457.55 943.216 454.13C942.571 450.76 939.885 448.297 940.763 444.606C940.871 444.153 941.025 443.72 941.203 443.297Z" fill="#25265F"/>
        <path d="M892.628 435.48C892.628 435.48 922.123 434.499 942.92 426.704C942.92 426.704 939.348 402.284 914.372 403.369C889.395 404.454 890.916 432.658 892.628 435.48Z" fill="#F5F238"/>
        <path d="M892.76 433.456C892.279 432.663 891.836 429.843 891.967 426.216C891.537 430.81 892.06 434.545 892.628 435.48C892.628 435.48 922.122 434.499 942.92 426.704C942.92 426.704 942.804 425.987 942.524 424.868C921.761 432.486 892.76 433.456 892.76 433.456Z" fill="#F3C70A"/>
        <path d="M895.95 434.014C895.262 430.851 895.237 427.582 895.576 424.352C895.935 421.12 896.699 417.89 898.094 414.859C899.512 411.852 901.497 409.027 904.143 406.912C906.833 404.828 910.12 403.726 913.323 403.542C910.385 404.939 907.786 406.497 905.676 408.632C903.649 410.831 902.027 413.337 900.782 416.083C899.465 418.795 898.632 421.763 897.839 424.752C897.099 427.763 896.488 430.838 895.95 434.014Z" fill="#F3C70A"/>
    </symbol>


    <symbol id="personal-icon" viewBox="0 0 24 24">
        <path d="M12 0C5.38327 0 0 5.38327 0 12C0 18.6167 5.38327 24 12 24C18.6167 24 24 18.6167 24 12C24 5.38327 18.6167 0 12 0ZM9.10269 6.73962C9.83365 5.96481 10.8623 5.53846 12 5.53846C13.1377 5.53846 14.1571 5.96769 14.891 6.74654C15.6346 7.53577 15.9963 8.59615 15.911 9.73615C15.7402 12 13.9863 13.8462 12 13.8462C10.0137 13.8462 8.25635 12 8.08904 9.73558C8.00423 8.58635 8.36539 7.5225 9.10269 6.73962ZM12 22.1538C10.6445 22.1547 9.30262 21.8834 8.05394 21.356C6.80525 20.8286 5.67519 20.0558 4.73077 19.0835C5.27167 18.3121 5.96086 17.6562 6.75808 17.1542C8.22865 16.2115 10.0898 15.6923 12 15.6923C13.9102 15.6923 15.7713 16.2115 17.2402 17.1542C18.0381 17.656 18.7279 18.3119 19.2692 19.0835C18.3249 20.0559 17.1948 20.8288 15.9461 21.3562C14.6974 21.8836 13.3555 22.1549 12 22.1538Z" />
    </symbol>

    <symbol id="report-icon" viewBox="0 0 19 24" >
        <path d="M15.4286 0H3.42857C2.51956 0.000992601 1.64807 0.362535 1.0053 1.0053C0.362535 1.64807 0.000992601 2.51956 0 3.42857V20.5714C0.000992601 21.4804 0.362535 22.3519 1.0053 22.9947C1.64807 23.6375 2.51956 23.999 3.42857 24H15.4286C16.3376 23.999 17.2091 23.6375 17.8518 22.9947C18.4946 22.3519 18.8561 21.4804 18.8571 20.5714V3.42857C18.8561 2.51956 18.4946 1.64807 17.8518 1.0053C17.2091 0.362535 16.3376 0.000992601 15.4286 0ZM9.42857 14.5714H5.14286C4.91553 14.5714 4.69751 14.4811 4.53677 14.3204C4.37602 14.1596 4.28571 13.9416 4.28571 13.7143C4.28571 13.487 4.37602 13.2689 4.53677 13.1082C4.69751 12.9474 4.91553 12.8571 5.14286 12.8571H9.42857C9.6559 12.8571 9.87392 12.9474 10.0347 13.1082C10.1954 13.2689 10.2857 13.487 10.2857 13.7143C10.2857 13.9416 10.1954 14.1596 10.0347 14.3204C9.87392 14.4811 9.6559 14.5714 9.42857 14.5714ZM13.7143 10.2857H5.14286C4.91553 10.2857 4.69751 10.1954 4.53677 10.0347C4.37602 9.87392 4.28571 9.6559 4.28571 9.42857C4.28571 9.20124 4.37602 8.98323 4.53677 8.82248C4.69751 8.66173 4.91553 8.57143 5.14286 8.57143H13.7143C13.9416 8.57143 14.1596 8.66173 14.3204 8.82248C14.4811 8.98323 14.5714 9.20124 14.5714 9.42857C14.5714 9.6559 14.4811 9.87392 14.3204 10.0347C14.1596 10.1954 13.9416 10.2857 13.7143 10.2857ZM13.7143 6H5.14286C4.91553 6 4.69751 5.90969 4.53677 5.74895C4.37602 5.5882 4.28571 5.37019 4.28571 5.14286C4.28571 4.91553 4.37602 4.69751 4.53677 4.53677C4.69751 4.37602 4.91553 4.28571 5.14286 4.28571H13.7143C13.9416 4.28571 14.1596 4.37602 14.3204 4.53677C14.4811 4.69751 14.5714 4.91553 14.5714 5.14286C14.5714 5.37019 14.4811 5.5882 14.3204 5.74895C14.1596 5.90969 13.9416 6 13.7143 6Z" />
    </symbol>

    <symbol id="help-icon" viewBox="0 0 24 24">
        <path d="M12 0C5.375 0 0 5.375 0 12C0 18.625 5.375 24 12 24C18.625 24 24 18.625 24 12C24 5.375 18.625 0 12 0ZM11.625 19C11.3778 19 11.1361 18.9267 10.9305 18.7893C10.725 18.652 10.5648 18.4568 10.4702 18.2284C10.3755 17.9999 10.3508 17.7486 10.399 17.5061C10.4472 17.2637 10.5663 17.0409 10.7411 16.8661C10.9159 16.6913 11.1387 16.5723 11.3811 16.524C11.6236 16.4758 11.8749 16.5005 12.1034 16.5951C12.3318 16.6898 12.527 16.85 12.6643 17.0555C12.8017 17.2611 12.875 17.5028 12.875 17.75C12.875 18.0815 12.7433 18.3995 12.5089 18.6339C12.2745 18.8683 11.9565 19 11.625 19ZM13.715 12.625C12.7019 13.305 12.5625 13.9281 12.5625 14.5C12.5625 14.7321 12.4703 14.9546 12.3062 15.1187C12.1421 15.2828 11.9196 15.375 11.6875 15.375C11.4554 15.375 11.2329 15.2828 11.0688 15.1187C10.9047 14.9546 10.8125 14.7321 10.8125 14.5C10.8125 13.1306 11.4425 12.0419 12.7388 11.1713C13.9438 10.3625 14.625 9.85 14.625 8.72313C14.625 7.95688 14.1875 7.375 13.2819 6.94438C13.0688 6.84312 12.5944 6.74438 12.0106 6.75125C11.2781 6.76063 10.7094 6.93563 10.2712 7.28813C9.445 7.95312 9.375 8.67688 9.375 8.6875C9.36946 8.80241 9.34134 8.9151 9.29225 9.01914C9.24316 9.12318 9.17406 9.21653 9.08889 9.29386C9.00372 9.3712 8.90415 9.431 8.79587 9.46985C8.68759 9.50871 8.57272 9.52585 8.45781 9.52031C8.34291 9.51477 8.23022 9.48665 8.12618 9.43756C8.02214 9.38847 7.92878 9.31937 7.85145 9.2342C7.77412 9.14903 7.71432 9.04946 7.67546 8.94118C7.63661 8.8329 7.61946 8.71803 7.625 8.60312C7.63188 8.45125 7.7375 7.08313 9.17313 5.92813C9.9175 5.32938 10.8644 5.01813 11.9856 5.00438C12.7794 4.995 13.525 5.12937 14.0306 5.36812C15.5437 6.08375 16.375 7.27688 16.375 8.72313C16.375 10.8375 14.9619 11.7869 13.715 12.625Z" />
    </symbol>

    <symbol id="info-icon" viewBox="0 0 24 24">
        <path d="M12 0C5.3832 0 0 5.3832 0 12C0 18.6168 5.3832 24 12 24C18.6168 24 24 18.6168 24 12C24 5.3832 18.6168 0 12 0ZM12 4.92C12.3085 4.92 12.6101 5.01149 12.8667 5.18291C13.1232 5.35432 13.3232 5.59796 13.4413 5.88301C13.5593 6.16807 13.5902 6.48173 13.53 6.78434C13.4698 7.08695 13.3213 7.36492 13.1031 7.58309C12.8849 7.80126 12.607 7.94983 12.3043 8.01002C12.0017 8.07022 11.6881 8.03932 11.403 7.92125C11.118 7.80318 10.8743 7.60323 10.7029 7.34669C10.5315 7.09015 10.44 6.78854 10.44 6.48C10.44 6.06626 10.6044 5.66947 10.8969 5.37691C11.1895 5.08436 11.5863 4.92 12 4.92ZM14.88 18.48H9.6C9.34539 18.48 9.10121 18.3789 8.92118 18.1988C8.74114 18.0188 8.64 17.7746 8.64 17.52C8.64 17.2654 8.74114 17.0212 8.92118 16.8412C9.10121 16.6611 9.34539 16.56 9.6 16.56H11.28V11.28H10.32C10.0654 11.28 9.82121 11.1789 9.64118 10.9988C9.46114 10.8188 9.36 10.5746 9.36 10.32C9.36 10.0654 9.46114 9.82121 9.64118 9.64118C9.82121 9.46114 10.0654 9.36 10.32 9.36H12.24C12.4946 9.36 12.7388 9.46114 12.9188 9.64118C13.0989 9.82121 13.2 10.0654 13.2 10.32V16.56H14.88C15.1346 16.56 15.3788 16.6611 15.5588 16.8412C15.7389 17.0212 15.84 17.2654 15.84 17.52C15.84 17.7746 15.7389 18.0188 15.5588 18.1988C15.3788 18.3789 15.1346 18.48 14.88 18.48Z" />
    </symbol>

    <symbol id="settings-icon" viewBox="0 0 24 21" >
        <path d="M0.923077 3.69152H14.0048C14.1958 4.23124 14.5494 4.69849 15.0169 5.02896C15.4844 5.35944 16.0429 5.53688 16.6154 5.53688C17.1879 5.53688 17.7464 5.35944 18.2139 5.02896C18.6814 4.69849 19.035 4.23124 19.226 3.69152H23.0769C23.3217 3.69152 23.5565 3.59427 23.7296 3.42116C23.9027 3.24805 24 3.01326 24 2.76844C24 2.52363 23.9027 2.28884 23.7296 2.11573C23.5565 1.94262 23.3217 1.84537 23.0769 1.84537H19.226C19.035 1.30565 18.6814 0.838395 18.2139 0.507922C17.7464 0.177448 17.1879 0 16.6154 0C16.0429 0 15.4844 0.177448 15.0169 0.507922C14.5494 0.838395 14.1958 1.30565 14.0048 1.84537H0.923077C0.678262 1.84537 0.443473 1.94262 0.270363 2.11573C0.0972524 2.28884 0 2.52363 0 2.76844C0 3.01326 0.0972524 3.24805 0.270363 3.42116C0.443473 3.59427 0.678262 3.69152 0.923077 3.69152ZM23.0769 16.6146H19.226C19.035 16.0749 18.6814 15.6076 18.2139 15.2772C17.7464 14.9467 17.1879 14.7692 16.6154 14.7692C16.0429 14.7692 15.4844 14.9467 15.0169 15.2772C14.5494 15.6076 14.1958 16.0749 14.0048 16.6146H0.923077C0.678262 16.6146 0.443473 16.7118 0.270363 16.885C0.0972524 17.0581 0 17.2929 0 17.5377C0 17.7825 0.0972524 18.0173 0.270363 18.1904C0.443473 18.3635 0.678262 18.4607 0.923077 18.4607H14.0048C14.1958 19.0005 14.5494 19.4677 15.0169 19.7982C15.4844 20.1287 16.0429 20.3061 16.6154 20.3061C17.1879 20.3061 17.7464 20.1287 18.2139 19.7982C18.6814 19.4677 19.035 19.0005 19.226 18.4607H23.0769C23.3217 18.4607 23.5565 18.3635 23.7296 18.1904C23.9027 18.0173 24 17.7825 24 17.5377C24 17.2929 23.9027 17.0581 23.7296 16.885C23.5565 16.7118 23.3217 16.6146 23.0769 16.6146ZM23.0769 9.22998H9.99519C9.80419 8.69026 9.4506 8.22301 8.98309 7.89254C8.51558 7.56206 7.95713 7.38461 7.38462 7.38461C6.8121 7.38461 6.25365 7.56206 5.78614 7.89254C5.31863 8.22301 4.96504 8.69026 4.77404 9.22998H0.923077C0.678262 9.22998 0.443473 9.32723 0.270363 9.50034C0.0972524 9.67345 0 9.90824 0 10.1531C0 10.3979 0.0972524 10.6327 0.270363 10.8058C0.443473 10.9789 0.678262 11.0761 0.923077 11.0761H4.77404C4.96504 11.6159 5.31863 12.0831 5.78614 12.4136C6.25365 12.7441 6.8121 12.9215 7.38462 12.9215C7.95713 12.9215 8.51558 12.7441 8.98309 12.4136C9.4506 12.0831 9.80419 11.6159 9.99519 11.0761H23.0769C23.3217 11.0761 23.5565 10.9789 23.7296 10.8058C23.9027 10.6327 24 10.3979 24 10.1531C24 9.90824 23.9027 9.67345 23.7296 9.50034C23.5565 9.32723 23.3217 9.22998 23.0769 9.22998Z" />
    </symbol>

    <symbol id="list-plus-icon" viewBox="0 0 16 16">
        <path fill-rule="evenodd" clip-rule="evenodd" d="M0 8C0 3.58885 3.58885 0 8 0C12.4112 0 16 3.58885 16 8C16 12.4112 12.4112 16 8 16C7.98277 16 7.96555 15.9999 7.94834 15.9998C3.56086 15.972 0 12.3939 0 8ZM8.61538 8.61539H11.0769C11.2401 8.61539 11.3967 8.55055 11.5121 8.43514C11.6275 8.31974 11.6923 8.16321 11.6923 8C11.6923 7.83679 11.6275 7.68026 11.5121 7.56486C11.3967 7.44945 11.2401 7.38462 11.0769 7.38462H8.61538V4.92308C8.61538 4.75987 8.55055 4.60334 8.43514 4.48793C8.31973 4.37253 8.16321 4.30769 8 4.30769C7.83679 4.30769 7.68026 4.37253 7.56486 4.48793C7.44945 4.60334 7.38461 4.75987 7.38461 4.92308V7.38462H4.92308C4.75987 7.38462 4.60334 7.44945 4.48793 7.56486C4.37253 7.68026 4.30769 7.83679 4.30769 8C4.30769 8.16321 4.37253 8.31974 4.48793 8.43514C4.60334 8.55055 4.75987 8.61539 4.92308 8.61539H7.38461V11.0769C7.38461 11.2401 7.44945 11.3967 7.56486 11.5121C7.68026 11.6275 7.83679 11.6923 8 11.6923C8.16321 11.6923 8.31973 11.6275 8.43514 11.5121C8.55055 11.3967 8.61538 11.2401 8.61538 11.0769V8.61539Z" />
    </symbol>

    <symbol id="list-minus-icon" viewBox="0 0 16 16">
        <path d="M8 0C3.58885 0 0 3.58885 0 8C0 12.4112 3.58885 16 8 16C12.4112 16 16 12.4112 16 8C16 3.58885 12.4112 0 8 0ZM11.0769 8.61539H4.92308C4.75987 8.61539 4.60334 8.55055 4.48793 8.43514C4.37253 8.31974 4.30769 8.16321 4.30769 8C4.30769 7.83679 4.37253 7.68026 4.48793 7.56486C4.60334 7.44945 4.75987 7.38462 4.92308 7.38462H11.0769C11.2401 7.38462 11.3967 7.44945 11.5121 7.56486C11.6275 7.68026 11.6923 7.83679 11.6923 8C11.6923 8.16321 11.6275 8.31974 11.5121 8.43514C11.3967 8.55055 11.2401 8.61539 11.0769 8.61539Z" />
    </symbol>

    <symbol id="warning-icon" viewBox="0 0 16 16">
        <path d="M8 0C3.58885 0 0 3.58885 0 8C0 12.4112 3.58885 16 8 16C12.4112 16 16 12.4112 16 8C16 3.58885 12.4112 0 8 0ZM8 12.3042C7.84786 12.3042 7.69914 12.2591 7.57264 12.1746C7.44614 12.0901 7.34755 11.9699 7.28932 11.8294C7.2311 11.6888 7.21587 11.5341 7.24555 11.3849C7.27523 11.2357 7.34849 11.0987 7.45607 10.9911C7.56365 10.8835 7.70071 10.8102 7.84993 10.7806C7.99915 10.7509 8.15381 10.7661 8.29437 10.8243C8.43493 10.8825 8.55507 10.9811 8.63959 11.1076C8.72412 11.2341 8.76923 11.3829 8.76923 11.535C8.76923 11.739 8.68819 11.9347 8.54393 12.0789C8.39967 12.2232 8.20401 12.3042 8 12.3042ZM8.83539 4.56769L8.61462 9.26C8.61462 9.42321 8.54978 9.57974 8.43437 9.69514C8.31897 9.81055 8.16244 9.87539 7.99923 9.87539C7.83602 9.87539 7.6795 9.81055 7.56409 9.69514C7.44868 9.57974 7.38385 9.42321 7.38385 9.26L7.16308 4.57V4.56808C7.15824 4.45536 7.17626 4.34282 7.21606 4.23725C7.25586 4.13168 7.31662 4.03526 7.39467 3.95379C7.47272 3.87231 7.56645 3.80748 7.67021 3.76319C7.77398 3.7189 7.88564 3.69606 7.99846 3.69606C8.11129 3.69606 8.22294 3.7189 8.32671 3.76319C8.43048 3.80748 8.52421 3.87231 8.60226 3.95379C8.68031 4.03526 8.74106 4.13168 8.78086 4.23725C8.82066 4.34282 8.83869 4.45536 8.83385 4.56808L8.83539 4.56769Z" />
    </symbol>

    <symbol id="clock-icon" viewBox="0 0 16 16">
        <path d="M8 0C3.58192 0 0 3.58192 0 8C0 12.4181 3.58192 16 8 16C12.4181 16 16 12.4181 16 8C16 3.58192 12.4181 0 8 0ZM11.6923 9.23077H8C7.83679 9.23077 7.68026 9.16594 7.56486 9.05053C7.44945 8.93512 7.38462 8.77859 7.38462 8.61539V3.07692C7.38462 2.91371 7.44945 2.75719 7.56486 2.64178C7.68026 2.52637 7.83679 2.46154 8 2.46154C8.16321 2.46154 8.31974 2.52637 8.43514 2.64178C8.55055 2.75719 8.61539 2.91371 8.61539 3.07692V8H11.6923C11.8555 8 12.012 8.06483 12.1275 8.18024C12.2429 8.29565 12.3077 8.45218 12.3077 8.61539C12.3077 8.77859 12.2429 8.93512 12.1275 9.05053C12.012 9.16594 11.8555 9.23077 11.6923 9.23077Z" />
    </symbol>

    <symbol id="favorite-icon" viewBox="0 0 18 16">
        <path d="M13.4966 15.9983C13.3763 15.9988 13.259 15.9613 13.1613 15.8912L8.56871 12.5616L3.97615 15.8912C3.87803 15.9623 3.75983 16.0004 3.63862 16C3.51741 15.9996 3.39948 15.9606 3.30189 15.8887C3.20429 15.8168 3.13208 15.7158 3.0957 15.6002C3.05931 15.4845 3.06064 15.3603 3.09949 15.2455L4.89066 9.94021L0.248463 6.75673C0.14791 6.68785 0.0720183 6.58862 0.0318765 6.47354C-0.00826528 6.35846 -0.0105534 6.23356 0.0253465 6.11708C0.0612464 6.00061 0.133453 5.89866 0.231416 5.82615C0.329379 5.75363 0.447965 5.71434 0.569846 5.71402H6.29689L8.02522 0.395132C8.06245 0.280299 8.1351 0.18021 8.23274 0.109223C8.33038 0.0382362 8.448 0 8.56871 0C8.68943 0 8.80705 0.0382362 8.90469 0.109223C9.00233 0.18021 9.07498 0.280299 9.11221 0.395132L10.8405 5.71581H16.5676C16.6896 5.71575 16.8085 5.75476 16.9067 5.82714C17.005 5.89952 17.0775 6.00145 17.1136 6.11801C17.1497 6.23458 17.1476 6.35965 17.1075 6.47491C17.0674 6.59016 16.9914 6.68955 16.8907 6.75852L12.2468 9.94021L14.0369 15.2441C14.0659 15.33 14.074 15.4215 14.0607 15.5112C14.0473 15.6008 14.0128 15.686 13.96 15.7597C13.9072 15.8334 13.8377 15.8934 13.7571 15.9349C13.6765 15.9764 13.5872 15.9981 13.4966 15.9983Z" />
    </symbol>

    <symbol id="last-icon" viewBox="0 0 14 16">
        <path d="M6.06335 0.227905C6.36722 -0.0759683 6.85989 -0.0759683 7.16377 0.227905C7.46764 0.531778 7.46764 1.02445 7.16377 1.32833L5.70629 2.7858C5.97036 2.77686 6.27113 2.77204 6.61356 2.77204C7.92168 2.77204 9.20042 3.15994 10.2881 3.88669C11.3757 4.61345 12.2235 5.64641 12.7241 6.85496C13.2247 8.0635 13.3557 9.39335 13.1005 10.6763C12.8452 11.9593 12.2153 13.1378 11.2903 14.0628C10.3654 14.9878 9.18687 15.6177 7.90388 15.8729C6.62089 16.1281 5.29104 15.9971 4.08249 15.4965C2.87395 14.9959 1.84099 14.1482 1.11423 13.0605C0.38748 11.9729 -0.000423431 10.6941 -0.000424385 9.38602C-0.000424385 8.95627 0.34795 8.6079 0.777691 8.6079C1.20743 8.6079 1.55581 8.95627 1.55581 9.38602C1.55581 10.3863 1.85244 11.3642 2.40819 12.196C2.96394 13.0277 3.75386 13.676 4.67804 14.0588C5.60222 14.4416 6.61917 14.5417 7.60027 14.3466C8.58138 14.1514 9.48259 13.6697 10.1899 12.9624C10.8973 12.255 11.379 11.3538 11.5741 10.3727C11.7693 9.39163 11.6691 8.37468 11.2863 7.4505C10.9035 6.52632 10.2552 5.7364 9.42349 5.18065C8.59175 4.6249 7.61388 4.32827 6.61356 4.32827C6.13195 4.32827 5.75215 4.33828 5.45433 4.35434L7.16377 6.06377C7.46764 6.36764 7.46764 6.86032 7.16377 7.16419C6.85989 7.46806 6.36722 7.46806 6.06335 7.16419L3.14541 4.24626C2.84154 3.94239 2.84154 3.44971 3.14541 3.14584L6.06335 0.227905Z" />
    </symbol>






    <symbol id="tmp-toggle-icon" viewBox="0 0 56 28">
        <rect width="56" height="28" rx="14" fill="#DFE5F0"/>
        <circle cx="14" cy="14" r="12" fill="white"/>
        <path d="M14 9.2C13.7971 9.2 13.6024 9.11938 13.4589 8.97587C13.3154 8.83237 13.2348 8.63773 13.2348 8.43478V6.76522C13.2348 6.56227 13.3154 6.36763 13.4589 6.22413C13.6024 6.08062 13.7971 6 14 6C14.2029 6 14.3976 6.08062 14.5411 6.22413C14.6846 6.36763 14.7652 6.56227 14.7652 6.76522V8.43478C14.7652 8.63773 14.6846 8.83237 14.5411 8.97587C14.3976 9.11938 14.2029 9.2 14 9.2ZM14 22C13.7971 22 13.6024 21.9194 13.4589 21.7759C13.3154 21.6324 13.2348 21.4377 13.2348 21.2348V19.5652C13.2348 19.3623 13.3154 19.1676 13.4589 19.0241C13.6024 18.8806 13.7971 18.8 14 18.8C14.2029 18.8 14.3976 18.8806 14.5411 19.0241C14.6846 19.1676 14.7652 19.3623 14.7652 19.5652V21.2348C14.7652 21.4377 14.6846 21.6324 14.5411 21.7759C14.3976 21.9194 14.2029 22 14 22ZM17.9353 10.8299C17.784 10.8299 17.6361 10.785 17.5103 10.701C17.3845 10.6169 17.2864 10.4974 17.2285 10.3576C17.1705 10.2178 17.1554 10.064 17.1848 9.91562C17.2143 9.7672 17.2871 9.63086 17.3941 9.52383L18.5746 8.3433C18.7187 8.20292 18.9124 8.12495 19.1136 8.12627C19.3148 8.1276 19.5073 8.20811 19.6496 8.35038C19.7919 8.49266 19.8724 8.68524 19.8737 8.88644C19.8751 9.08763 19.7971 9.28126 19.6567 9.42539L18.4762 10.6059C18.4052 10.677 18.3209 10.7334 18.2281 10.7719C18.1353 10.8103 18.0358 10.83 17.9353 10.8299ZM8.88417 19.881C8.73282 19.881 8.58487 19.8361 8.45904 19.752C8.33321 19.6679 8.23514 19.5484 8.17725 19.4085C8.11935 19.2687 8.10423 19.1148 8.13378 18.9664C8.16334 18.8179 8.23626 18.6816 8.3433 18.5746L9.52383 17.3941C9.59453 17.3215 9.67895 17.2637 9.77219 17.224C9.86543 17.1843 9.96562 17.1635 10.067 17.1628C10.1683 17.1621 10.2688 17.1816 10.3625 17.2201C10.4563 17.2585 10.5414 17.3153 10.6131 17.3869C10.6847 17.4586 10.7415 17.5437 10.7799 17.6375C10.8184 17.7312 10.8379 17.8317 10.8372 17.933C10.8365 18.0344 10.8157 18.1346 10.776 18.2278C10.7363 18.321 10.6785 18.4055 10.6059 18.4762L9.42539 19.6567C9.35441 19.7279 9.27005 19.7844 9.17717 19.8229C9.08429 19.8614 8.98472 19.8811 8.88417 19.881ZM21.2348 14.7652H19.5652C19.3623 14.7652 19.1676 14.6846 19.0241 14.5411C18.8806 14.3976 18.8 14.2029 18.8 14C18.8 13.7971 18.8806 13.6024 19.0241 13.4589C19.1676 13.3154 19.3623 13.2348 19.5652 13.2348H21.2348C21.4377 13.2348 21.6324 13.3154 21.7759 13.4589C21.9194 13.6024 22 13.7971 22 14C22 14.2029 21.9194 14.3976 21.7759 14.5411C21.6324 14.6846 21.4377 14.7652 21.2348 14.7652ZM8.43478 14.7652H6.76522C6.56227 14.7652 6.36763 14.6846 6.22413 14.5411C6.08062 14.3976 6 14.2029 6 14C6 13.7971 6.08062 13.6024 6.22413 13.4589C6.36763 13.3154 6.56227 13.2348 6.76522 13.2348H8.43478C8.63773 13.2348 8.83237 13.3154 8.97587 13.4589C9.11938 13.6024 9.2 13.7971 9.2 14C9.2 14.2029 9.11938 14.3976 8.97587 14.5411C8.83237 14.6846 8.63773 14.7652 8.43478 14.7652ZM19.1158 19.881C19.0153 19.8811 18.9157 19.8614 18.8228 19.8229C18.73 19.7844 18.6456 19.7279 18.5746 19.6567L17.3941 18.4762C17.2537 18.332 17.1757 18.1384 17.1771 17.9372C17.1784 17.736 17.2589 17.5434 17.4012 17.4012C17.5434 17.2589 17.736 17.1784 17.9372 17.1771C18.1384 17.1757 18.332 17.2537 18.4762 17.3941L19.6567 18.5746C19.7637 18.6816 19.8367 18.8179 19.8662 18.9664C19.8958 19.1148 19.8806 19.2687 19.8228 19.4085C19.7649 19.5484 19.6668 19.6679 19.541 19.752C19.4151 19.8361 19.2672 19.881 19.1158 19.881ZM10.0647 10.8299C9.96422 10.8301 9.8647 10.8104 9.77187 10.772C9.67904 10.7335 9.59474 10.6771 9.52383 10.6059L8.3433 9.42539C8.20292 9.28126 8.12495 9.08763 8.12627 8.88644C8.1276 8.68524 8.20811 8.49266 8.35038 8.35038C8.49266 8.20811 8.68524 8.1276 8.88644 8.12627C9.08763 8.12495 9.28126 8.20292 9.42539 8.3433L10.6059 9.52383C10.7129 9.63086 10.7857 9.7672 10.8152 9.91562C10.8446 10.064 10.8295 10.2178 10.7715 10.3576C10.7136 10.4974 10.6155 10.6169 10.4897 10.701C10.3639 10.785 10.216 10.8299 10.0647 10.8299ZM14 17.5478C13.2983 17.5478 12.6124 17.3397 12.0289 16.9499C11.4455 16.5601 10.9908 16.006 10.7222 15.3577C10.4537 14.7094 10.3835 13.9961 10.5203 13.3079C10.6572 12.6196 10.9951 11.9875 11.4913 11.4913C11.9875 10.9951 12.6196 10.6572 13.3079 10.5203C13.9961 10.3835 14.7094 10.4537 15.3577 10.7222C16.006 10.9908 16.5601 11.4455 16.9499 12.0289C17.3397 12.6124 17.5478 13.2983 17.5478 14C17.5467 14.9406 17.1726 15.8424 16.5075 16.5075C15.8424 17.1726 14.9406 17.5467 14 17.5478Z" fill="#CCD4E6"/>
    </symbol>


</svg>